<?xml version="1.0" encoding="UTF-8" standalone="no"?>
<svg
   xmlns:dc="http://purl.org/dc/elements/1.1/"
   xmlns:cc="http://creativecommons.org/ns#"
   xmlns:rdf="http://www.w3.org/1999/02/22-rdf-syntax-ns#"
   xmlns:svg="http://www.w3.org/2000/svg"
   xmlns="http://www.w3.org/2000/svg"
   width="210mm"
   height="297mm"
   viewBox="0 0 210 297"
   version="1.1"
   id="svg8">
  <defs
     id="defs2">
    <filter
       style="color-interpolation-filters:sRGB"
       id="filter1091"
       x="-1.0045818e-06"
       width="1.000002"
       y="-1.4898077e-06"
       height="1.000003">
      <feGaussianBlur
         stdDeviation="0.00072040833"
         id="feGaussianBlur1093" />
    </filter>
  </defs>
  <metadata
     id="metadata5">
    <rdf:RDF>
      <cc:Work
         rdf:about="">
        <dc:format>image/svg+xml</dc:format>
        <dc:type
           rdf:resource="http://purl.org/dc/dcmitype/StillImage" />
        <dc:title></dc:title>
      </cc:Work>
    </rdf:RDF>
  </metadata>
  <g
     id="layer1">
    <g
       transform="matrix(0.09704494,0,0,-0.09517363,-70.147707,309.82116)"
       fill="#000000"
       stroke="none"
       id="g947">
      <path
         d="m 1757,2628 c -30,-51 -79,-136 -109,-188 -30,-52 -197,-341 -371,-642 -175,-301 -317,-550 -317,-553 0,-3 385,-5 855,-5 470,0 855,2 855,6 0,4 -255,448 -703,1219 -76,132 -142,244 -147,248 -4,5 -32,-33 -63,-85 z m 125,-80 c 306.0851,-510.6529 1003.8618,-1754.45336 403,-718 -39,69 -98,170 -130,225 -77,132 -187,324 -265,460 -35,61 -65,112 -67,114 -8,11 -39,-36 -161,-249 -71,-124 -185,-322 -254,-440 -235,-404 -368,-638 -368,-644 0,-3 349,-6 775,-6 426,0 775,3 775,6 0,3 -70.4517,126.3112 -77.6674,156.609 -46.4959,72.6694 90.5788,-144.5882 97.6674,-168.609 0,-2 -358,-4 -795,-4 -437,0 -795,2 -795,4 0,3 23,44 195,341 54,94 131,226 170,295 40,69 104,179 142,245 38,66 114,197 168,290 100,174 119,205 121,205 1,0 31,-51 66,-112 z m -21,-46 c 52,-91 387,-670 429,-742 95,-161 250,-432 250,-436 0,-2 -326,-4 -725,-4 -399,0 -725,2 -725,4 0,2 39,71 86,153 48,81 128,220 179,308 51,88 118,205 150,260 32,55 107,186 167,290 137,237 137,237 148,230 5,-3 23,-31 41,-63 z"
         id="path835" />
      <path
         d="m 1808,2508 c -3,-7 -2,-87 3,-178 4,-91 8,-173 8,-182 1,-10 6,-18 12,-18 9,0 10,49 5,188 -7,171 -15,225 -28,190 z"
         id="path837" />
      <path
         d="m 1747,2407 c -3,-8 4,-74 15,-146 16,-100 24,-131 35,-131 11,0 14,7 9,23 -3,12 -13,74 -22,137 -17,115 -26,144 -37,117 z"
         id="path839" />
      <path
         d="m 1865,2293 c -13,-182 -15,-168 23,-167 17,0 32,-3 32,-7 0,-4 12,-10 26,-13 14,-4 44,-18 66,-32 39,-25 68,-26 68,-4 0,7 -8,9 -22,4 -20,-6 -21,-5 -10,9 19,22 6,42 -16,25 -13,-12 -14,-10 -4,9 17,32 -4,40 -29,11 l -20,-23 16,32 c 8,18 15,39 15,48 0,27 -17,16 -35,-25 -24,-53 -28,-46 -10,15 17,56 19,75 6,75 -5,0 -17,-24 -27,-52 -22,-68 -28,-50 -11,33 7,35 12,70 9,77 -9,29 -21,7 -32,-60 -15,-89 -29,-128 -29,-83 0,17 4,71 8,120 5,50 6,96 4,103 -13,33 -22,3 -28,-95 z"
         id="path841" />
      <path
         d="m 1703,2297 c 10,-60 48,-177 57,-177 15,0 13,15 -16,117 -26,90 -52,129 -41,60 z"
         id="path843" />
      <path
         d="m 1660,2258 c 0,-28 54,-138 67,-138 8,0 13,4 11,8 -52,126 -78,169 -78,130 z"
         id="path845" />
      <path
         d="m 1630,2199 c 0,-23 53,-100 62,-91 7,7 0,26 -17,56 -25,44 -45,59 -45,35 z"
         id="path847" />
      <path
         d="m 1607,2164 c -8,-14 32,-74 49,-74 20,0 17,11 -15,49 -15,19 -31,30 -34,25 z"
         id="path849" />
      <path
         d="m 1580,2117 c 0,-16 32,-47 48,-47 19,0 14,14 -11,38 -27,25 -37,28 -37,9 z"
         id="path851" />
      <path
         d="m 1747,2099 c -64,-15 -134,-57 -202,-120 -36,-34 -64,-64 -61,-66 2,-2 30,13 63,35 121,82 227,118 323,109 62,-5 150,-45 223,-101 61,-46 77,-27 19,24 -53,48 -144,96 -217,115 -65,17 -91,17 -148,4 z"
         id="path853" />
      <path
         d="m 1562,2073 c 2,-10 14,-20 28,-22 25,-3 25,-3 6,18 -23,26 -39,27 -34,4 z"
         id="path855" />
      <path
         d="m 1542,2038 c 5,-15 28,-18 29,-3 0,6 -7,12 -17,13 -10,3 -15,-1 -12,-10 z"
         id="path857" />
      <path
         d="m 2070,2040 c 0,-5 9,-14 21,-20 19,-11 20,-10 9,9 -11,22 -30,29 -30,11 z"
         id="path859" />
      <path
         d="m 1710,2018 c -102,-36 -299,-184 -335,-253 -19,-36 -19,-38 -1,-50 10,-8 36,-17 57,-20 22,-4 46,-14 55,-22 8,-9 29,-17 47,-18 18,-2 36,-3 40,-4 5,-1 5,-6 1,-13 -4,-6 -3,-8 3,-5 6,4 36,-4 67,-18 30,-13 86,-29 123,-35 89,-14 95,-24 12,-18 -42,4 -89,15 -124,32 -32,14 -60,25 -62,23 -2,-2 25,-17 59,-33 93,-42 196,-45 303,-9 82,27 178,79 208,113 15,17 16,20 3,25 -8,3 -25,-2 -38,-12 -69,-54 -174,-85 -289,-84 -93,0 -163,16 -249,56 -36,16 -89,33 -119,38 -74,11 -88,35 -50,83 29,37 280,161 356,176 107,21 203,-12 328,-115 62,-51 109,-75 121,-62 14,14 -29,65 -95,113 -177,128 -289,158 -421,112 z"
         id="path861" />
      <path
         d="m 1520,2005 c 0,-9 5,-15 11,-13 6,2 11,8 11,13 0,5 -5,11 -11,13 -6,2 -11,-4 -11,-13 z"
         id="path863" />
      <path
         d="m 1500,1969 c 0,-5 5,-7 10,-4 6,3 10,8 10,11 0,2 -4,4 -10,4 -5,0 -10,-5 -10,-11 z"
         id="path865" />
      <path
         d="m 2017,1851 c 7,-50 -24,-120 -68,-154 -74,-56 -171,-57 -243,-3 -50,38 -76,87 -76,144 0,53 -16,54 -31,2 -9,-31 -9,-46 0,-68 10,-25 10,-26 -4,-8 -8,11 -15,38 -15,60 0,49 -11,40 -21,-17 -6,-38 -7,-39 -8,-9 -1,43 -14,41 -31,-5 -8,-21 -16,-41 -18,-46 -6,-11 143,-76 212,-92 77,-19 172,-19 258,-1 77,17 114,34 163,77 37,33 44,49 21,49 -8,0 -17,6 -19,13 -4,7 -9,2 -14,-13 -7,-23 -8,-22 -13,15 l -6,40 -17,-35 -17,-35 4,42 c 6,62 -7,62 -26,1 -15,-45 -17,-47 -12,-15 6,43 -3,97 -16,97 -4,0 -6,-17 -3,-39 z"
         id="path867" />
      <path
         d="m 1656,1857 c -7,-28 5,-74 29,-110 27,-41 97,-70 156,-65 85,9 152,78 147,153 -3,35 -6,40 -27,40 -25,0 -24,1 -33,-80 -24.4858,-47.1369 -119.099,-71.4741 -161,-41 -18.2964,11.1362 -38.2461,19.958 -45,44 -1,9 -3,31 -4,47 -2,24 -8,31 -29,33 -21,2 -28,-2 -33,-21 z"
         id="path869" />
      <path
         d="m 1457,1800 c -35,-27 -36,-60 -3,-60 17,0 27,9 36,31 18,42 1,56 -33,29 z"
         id="path871" />
      <path
         d="m 2222,1710 c 5,-15 78,-44 78,-31 0,13 -23,29 -54,37 -21,5 -28,4 -24,-6 z"
         id="path873" />
      <path
         d="m 2180,1675 c 0,-8 163,-86 168,-81 10,11 -16,31 -74,57 -60,27 -94,36 -94,24 z"
         id="path875" />
      <path
         d="m 1333,1635 c -29,-13 -53,-29 -53,-34 0,-6 3,-11 8,-11 16,0 132,54 132,62 0,14 -33,8 -87,-17 z"
         id="path877" />
      <path
         d="m 1360,1579 c -126,-71 -158,-94 -148,-104 7,-8 281,148 286,163 7,21 -9,14 -138,-59 z"
         id="path879" />
      <path
         d="m 2150,1642 c 0,-8 253,-162 266,-162 22,0 -51,57 -141,110 -97,57 -125,69 -125,52 z"
         id="path881" />
      <path
         d="m 1352,1498 c -117,-85 -179,-135 -173,-141 10,-10 53,19 279,186 82,60 108,87 85,87 -5,0 -90,-60 -191,-132 z"
         id="path883" />
      <path
         d="m 2116,1622 c -8,-13 333,-274 352,-270 11,2 -48,54 -159,141 -97,75 -179,137 -182,137 -3,0 -8,-4 -11,-8 z"
         id="path885" />
      <path
         d="m 2065,1597 c -11,-7 -22,-13 -24,-14 -9,-5 182,-233 195,-233 20,0 16,6 -84,128 -46,57 -83,105 -80,107 2,2 61,-50 130,-115 108,-103 148,-134 148,-116 0,6 -250,251 -258,253 -4,1 -16,-4 -27,-10 z"
         id="path887" />
      <path
         d="m 1465,1509 c -154,-140 -173,-159 -152,-159 17,0 274,226 276,243 3,22 -35,-3 -124,-84 z"
         id="path889" />
      <path
         d="m 1513,1478 c -103,-118 -110,-128 -90,-128 7,0 52,44 98,98 116,134 115,132 96,132 -8,0 -55,-46 -104,-102 z"
         id="path891" />
      <path
         d="m 2012,1557 c 2,-6 30,-56 63,-109 38,-62 66,-97 78,-98 16,0 3,24 -109,196 -17,25 -38,33 -32,11 z"
         id="path893" />
      <path
         d="m 1570,1463 c -76,-113 -76,-113 -57,-113 11,0 147,188 147,205 0,3 -6,5 -12,5 -7,-1 -42,-44 -78,-97 z"
         id="path895" />
      <path
         d="m 1970,1550 c 0,-22 95,-200 107,-200 7,0 13,2 13,5 0,16 -102,205 -110,205 -6,0 -10,-4 -10,-10 z"
         id="path897" />
      <path
         d="m 1667,1528 c -8,-13 -33,-58 -56,-101 -32,-62 -37,-78 -24,-75 22,4 118,184 104,193 -6,3 -16,-5 -24,-17 z"
         id="path899" />
      <path
         d="m 1939,1545 c -9,-8 57,-189 70,-193 17,-6 14,12 -16,96 -25,75 -44,108 -54,97 z"
         id="path901" />
      <path
         d="m 1713,1527 c -6,-6 -15,-25 -20,-42 -6,-16 -20,-54 -32,-83 -19,-47 -19,-53 -5,-50 18,3 87,175 74,183 -4,3 -12,-1 -17,-8 z"
         id="path903" />
      <path
         d="m 1906,1532 c -7,-12 22,-163 35,-176 20,-21 21,9 4,86 -19,85 -28,107 -39,90 z"
         id="path905" />
      <path
         d="m 1741,1493 c -27,-102 -33,-134 -27,-140 3,-4 10,-2 15,3 9,10 41,133 41,159 0,29 -19,15 -29,-22 z"
         id="path907" />
      <path
         d="m 1867,1523 c -6,-11 10,-163 17,-171 15,-14 18,14 11,93 -6,75 -15,101 -28,78 z"
         id="path909" />
      <path
         d="m 1780,1496 c 0,-12 -3,-51 -6,-85 -7,-65 9,-88 20,-28 18,105 19,137 2,137 -10,0 -16,-8 -16,-24 z"
         id="path911" />
      <path
         d="m 1820,1435 c 0,-69 3,-85 15,-85 12,0 15,16 15,85 0,69 -3,85 -15,85 -12,0 -15,-16 -15,-85 z"
         id="path913" />
      <ellipse
         style="opacity:1;fill:#000000;stroke:#000000;stroke-width:6.84301"
         id="path1029"
         transform="scale(1,-1)"
         ry="64.982765"
         rx="81.454865"
         cy="-1852.2589"
         cx="1826.0188" />
      <text
         xml:space="preserve"
         style="font-size:300px;line-height:1.25;font-family:'Hippie Movement';-inkscape-font-specification:'Hippie Movement';stroke-width:7.5"
         x="1683.121"
         y="62.614246"
         id="text1097"
         transform="matrix(0.51528934,0.85701627,0.85701627,-0.51528934,0,0)"><tspan
           id="tspan1095"
           x="1683.121"
           y="62.614246"
           style="stroke-width:7.5">PORTFOLIO</tspan></text>
      <text
         xml:space="preserve"
         style="font-size:300px;line-height:1.25;font-family:'Hippie Movement';-inkscape-font-specification:'Hippie Movement';text-align:center;text-anchor:middle;stroke-width:7.5"
         x="1751.7432"
         y="-2785.7905"
         id="text1101"
         transform="matrix(0.99976208,-0.02181229,-0.02181229,-0.99976208,0,0)"><tspan
           x="1788.9502"
           y="-2785.7905"
           style="text-align:center;text-anchor:middle;stroke-width:7.5"
           id="tspan1103">JESSE </tspan></text>
      <text
         xml:space="preserve"
         style="font-size:300px;line-height:1.25;font-family:'Hippie Movement';-inkscape-font-specification:'Hippie Movement';text-align:center;text-anchor:middle;stroke-width:7.5"
         x="-531.59161"
         y="-3032.7427"
         id="text1109"
         transform="matrix(0.50535567,-0.86291115,-0.86291115,-0.50535567,0,0)"><tspan
           x="-494.38458"
           y="-3032.7427"
           style="text-align:center;text-anchor:middle;stroke-width:7.5"
           id="tspan1107">JUKANEN </tspan></text>
    </g>
  </g>
</svg>
