<?xml version="1.0" encoding="UTF-8" standalone="no"?>
<svg
   xmlns:dc="http://purl.org/dc/elements/1.1/"
   xmlns:cc="http://creativecommons.org/ns#"
   xmlns:rdf="http://www.w3.org/1999/02/22-rdf-syntax-ns#"
   xmlns:svg="http://www.w3.org/2000/svg"
   xmlns="http://www.w3.org/2000/svg"
   xmlns:sodipodi="http://sodipodi.sourceforge.net/DTD/sodipodi-0.dtd"
   xmlns:inkscape="http://www.inkscape.org/namespaces/inkscape"
   width="672"
   height="557"
   viewBox="0 0 177.80109 147.37385"
   version="1.1"
   id="svg8"
   sodipodi:docname="eye_plain.svg"
   inkscape:version="1.0.1 (0767f8302a, 2020-10-17)">
  <defs
     id="defs2">
    <filter
       style="color-interpolation-filters:sRGB"
       inkscape:label="Invert"
       id="filter1548">
      <feColorMatrix
         values="1 0 0 0 0 0 1 0 0 0 0 0 1 0 0 -0.21 -0.72 -0.07 2 0 "
         result="fbSourceGraphic"
         id="feColorMatrix1546" />
      <feColorMatrix
         result="fbSourceGraphicAlpha"
         in="fbSourceGraphic"
         values="0 0 0 -1 0 0 0 0 -1 0 0 0 0 -1 0 0 0 0 1 0"
         id="feColorMatrix1790" />
      <feColorMatrix
         id="feColorMatrix1792"
         values="1 0 0 0 0 0 1 0 0 0 0 0 1 0 0 -0.21 -0.72 -0.07 2 0 "
         result="color2"
         in="fbSourceGraphic" />
    </filter>
    <filter
       style="color-interpolation-filters:sRGB"
       inkscape:label="Invert"
       id="filter1552">
      <feColorMatrix
         values="1 0 0 0 0 0 1 0 0 0 0 0 1 0 0 -0.21 -0.72 -0.07 2 0 "
         result="fbSourceGraphic"
         id="feColorMatrix1550" />
      <feColorMatrix
         result="fbSourceGraphicAlpha"
         in="fbSourceGraphic"
         values="0 0 0 -1 0 0 0 0 -1 0 0 0 0 -1 0 0 0 0 1 0"
         id="feColorMatrix1794" />
      <feColorMatrix
         id="feColorMatrix1796"
         values="1 0 0 0 0 0 1 0 0 0 0 0 1 0 0 -0.21 -0.72 -0.07 2 0 "
         result="color2"
         in="fbSourceGraphic" />
    </filter>
    <filter
       style="color-interpolation-filters:sRGB"
       inkscape:label="Invert"
       id="filter1556">
      <feColorMatrix
         values="1 0 0 0 0 0 1 0 0 0 0 0 1 0 0 -0.21 -0.72 -0.07 2 0 "
         result="fbSourceGraphic"
         id="feColorMatrix1554" />
      <feColorMatrix
         result="fbSourceGraphicAlpha"
         in="fbSourceGraphic"
         values="0 0 0 -1 0 0 0 0 -1 0 0 0 0 -1 0 0 0 0 1 0"
         id="feColorMatrix1798" />
      <feColorMatrix
         id="feColorMatrix1800"
         values="1 0 0 0 0 0 1 0 0 0 0 0 1 0 0 -0.21 -0.72 -0.07 2 0 "
         result="color2"
         in="fbSourceGraphic" />
    </filter>
    <filter
       style="color-interpolation-filters:sRGB"
       inkscape:label="Invert"
       id="filter1560">
      <feColorMatrix
         values="1 0 0 0 0 0 1 0 0 0 0 0 1 0 0 -0.21 -0.72 -0.07 2 0 "
         result="fbSourceGraphic"
         id="feColorMatrix1558" />
      <feColorMatrix
         result="fbSourceGraphicAlpha"
         in="fbSourceGraphic"
         values="0 0 0 -1 0 0 0 0 -1 0 0 0 0 -1 0 0 0 0 1 0"
         id="feColorMatrix1802" />
      <feColorMatrix
         id="feColorMatrix1804"
         values="1 0 0 0 0 0 1 0 0 0 0 0 1 0 0 -0.21 -0.72 -0.07 2 0 "
         result="color2"
         in="fbSourceGraphic" />
    </filter>
    <filter
       style="color-interpolation-filters:sRGB"
       inkscape:label="Invert"
       id="filter1564">
      <feColorMatrix
         values="1 0 0 0 0 0 1 0 0 0 0 0 1 0 0 -0.21 -0.72 -0.07 2 0 "
         result="fbSourceGraphic"
         id="feColorMatrix1562" />
      <feColorMatrix
         result="fbSourceGraphicAlpha"
         in="fbSourceGraphic"
         values="0 0 0 -1 0 0 0 0 -1 0 0 0 0 -1 0 0 0 0 1 0"
         id="feColorMatrix1806" />
      <feColorMatrix
         id="feColorMatrix1808"
         values="1 0 0 0 0 0 1 0 0 0 0 0 1 0 0 -0.21 -0.72 -0.07 2 0 "
         result="color2"
         in="fbSourceGraphic" />
    </filter>
    <filter
       style="color-interpolation-filters:sRGB"
       inkscape:label="Invert"
       id="filter1568">
      <feColorMatrix
         values="1 0 0 0 0 0 1 0 0 0 0 0 1 0 0 -0.21 -0.72 -0.07 2 0 "
         result="fbSourceGraphic"
         id="feColorMatrix1566" />
      <feColorMatrix
         result="fbSourceGraphicAlpha"
         in="fbSourceGraphic"
         values="0 0 0 -1 0 0 0 0 -1 0 0 0 0 -1 0 0 0 0 1 0"
         id="feColorMatrix1810" />
      <feColorMatrix
         id="feColorMatrix1812"
         values="1 0 0 0 0 0 1 0 0 0 0 0 1 0 0 -0.21 -0.72 -0.07 2 0 "
         result="color2"
         in="fbSourceGraphic" />
    </filter>
    <filter
       style="color-interpolation-filters:sRGB"
       inkscape:label="Invert"
       id="filter1572">
      <feColorMatrix
         values="1 0 0 0 0 0 1 0 0 0 0 0 1 0 0 -0.21 -0.72 -0.07 2 0 "
         result="fbSourceGraphic"
         id="feColorMatrix1570" />
      <feColorMatrix
         result="fbSourceGraphicAlpha"
         in="fbSourceGraphic"
         values="0 0 0 -1 0 0 0 0 -1 0 0 0 0 -1 0 0 0 0 1 0"
         id="feColorMatrix1814" />
      <feColorMatrix
         id="feColorMatrix1816"
         values="1 0 0 0 0 0 1 0 0 0 0 0 1 0 0 -0.21 -0.72 -0.07 2 0 "
         result="color2"
         in="fbSourceGraphic" />
    </filter>
    <filter
       style="color-interpolation-filters:sRGB"
       inkscape:label="Invert"
       id="filter1576">
      <feColorMatrix
         values="1 0 0 0 0 0 1 0 0 0 0 0 1 0 0 -0.21 -0.72 -0.07 2 0 "
         result="fbSourceGraphic"
         id="feColorMatrix1574" />
      <feColorMatrix
         result="fbSourceGraphicAlpha"
         in="fbSourceGraphic"
         values="0 0 0 -1 0 0 0 0 -1 0 0 0 0 -1 0 0 0 0 1 0"
         id="feColorMatrix1818" />
      <feColorMatrix
         id="feColorMatrix1820"
         values="1 0 0 0 0 0 1 0 0 0 0 0 1 0 0 -0.21 -0.72 -0.07 2 0 "
         result="color2"
         in="fbSourceGraphic" />
    </filter>
    <filter
       style="color-interpolation-filters:sRGB"
       inkscape:label="Invert"
       id="filter1580">
      <feColorMatrix
         values="1 0 0 0 0 0 1 0 0 0 0 0 1 0 0 -0.21 -0.72 -0.07 2 0 "
         result="fbSourceGraphic"
         id="feColorMatrix1578" />
      <feColorMatrix
         result="fbSourceGraphicAlpha"
         in="fbSourceGraphic"
         values="0 0 0 -1 0 0 0 0 -1 0 0 0 0 -1 0 0 0 0 1 0"
         id="feColorMatrix1822" />
      <feColorMatrix
         id="feColorMatrix1824"
         values="1 0 0 0 0 0 1 0 0 0 0 0 1 0 0 -0.21 -0.72 -0.07 2 0 "
         result="color2"
         in="fbSourceGraphic" />
    </filter>
    <filter
       style="color-interpolation-filters:sRGB"
       inkscape:label="Invert"
       id="filter1584">
      <feColorMatrix
         values="1 0 0 0 0 0 1 0 0 0 0 0 1 0 0 -0.21 -0.72 -0.07 2 0 "
         result="fbSourceGraphic"
         id="feColorMatrix1582" />
      <feColorMatrix
         result="fbSourceGraphicAlpha"
         in="fbSourceGraphic"
         values="0 0 0 -1 0 0 0 0 -1 0 0 0 0 -1 0 0 0 0 1 0"
         id="feColorMatrix1826" />
      <feColorMatrix
         id="feColorMatrix1828"
         values="1 0 0 0 0 0 1 0 0 0 0 0 1 0 0 -0.21 -0.72 -0.07 2 0 "
         result="color2"
         in="fbSourceGraphic" />
    </filter>
    <filter
       style="color-interpolation-filters:sRGB"
       inkscape:label="Invert"
       id="filter1588">
      <feColorMatrix
         values="1 0 0 0 0 0 1 0 0 0 0 0 1 0 0 -0.21 -0.72 -0.07 2 0 "
         result="fbSourceGraphic"
         id="feColorMatrix1586" />
      <feColorMatrix
         result="fbSourceGraphicAlpha"
         in="fbSourceGraphic"
         values="0 0 0 -1 0 0 0 0 -1 0 0 0 0 -1 0 0 0 0 1 0"
         id="feColorMatrix1830" />
      <feColorMatrix
         id="feColorMatrix1832"
         values="1 0 0 0 0 0 1 0 0 0 0 0 1 0 0 -0.21 -0.72 -0.07 2 0 "
         result="color2"
         in="fbSourceGraphic" />
    </filter>
    <filter
       style="color-interpolation-filters:sRGB"
       inkscape:label="Invert"
       id="filter1592">
      <feColorMatrix
         values="1 0 0 0 0 0 1 0 0 0 0 0 1 0 0 -0.21 -0.72 -0.07 2 0 "
         result="fbSourceGraphic"
         id="feColorMatrix1590" />
      <feColorMatrix
         result="fbSourceGraphicAlpha"
         in="fbSourceGraphic"
         values="0 0 0 -1 0 0 0 0 -1 0 0 0 0 -1 0 0 0 0 1 0"
         id="feColorMatrix1834" />
      <feColorMatrix
         id="feColorMatrix1836"
         values="1 0 0 0 0 0 1 0 0 0 0 0 1 0 0 -0.21 -0.72 -0.07 2 0 "
         result="color2"
         in="fbSourceGraphic" />
    </filter>
    <filter
       style="color-interpolation-filters:sRGB"
       inkscape:label="Invert"
       id="filter1596">
      <feColorMatrix
         values="1 0 0 0 0 0 1 0 0 0 0 0 1 0 0 -0.21 -0.72 -0.07 2 0 "
         result="fbSourceGraphic"
         id="feColorMatrix1594" />
      <feColorMatrix
         result="fbSourceGraphicAlpha"
         in="fbSourceGraphic"
         values="0 0 0 -1 0 0 0 0 -1 0 0 0 0 -1 0 0 0 0 1 0"
         id="feColorMatrix1838" />
      <feColorMatrix
         id="feColorMatrix1840"
         values="1 0 0 0 0 0 1 0 0 0 0 0 1 0 0 -0.21 -0.72 -0.07 2 0 "
         result="color2"
         in="fbSourceGraphic" />
    </filter>
    <filter
       style="color-interpolation-filters:sRGB"
       inkscape:label="Invert"
       id="filter1600">
      <feColorMatrix
         values="1 0 0 0 0 0 1 0 0 0 0 0 1 0 0 -0.21 -0.72 -0.07 2 0 "
         result="fbSourceGraphic"
         id="feColorMatrix1598" />
      <feColorMatrix
         result="fbSourceGraphicAlpha"
         in="fbSourceGraphic"
         values="0 0 0 -1 0 0 0 0 -1 0 0 0 0 -1 0 0 0 0 1 0"
         id="feColorMatrix1842" />
      <feColorMatrix
         id="feColorMatrix1844"
         values="1 0 0 0 0 0 1 0 0 0 0 0 1 0 0 -0.21 -0.72 -0.07 2 0 "
         result="color2"
         in="fbSourceGraphic" />
    </filter>
    <filter
       style="color-interpolation-filters:sRGB"
       inkscape:label="Invert"
       id="filter1604">
      <feColorMatrix
         values="1 0 0 0 0 0 1 0 0 0 0 0 1 0 0 -0.21 -0.72 -0.07 2 0 "
         result="fbSourceGraphic"
         id="feColorMatrix1602" />
      <feColorMatrix
         result="fbSourceGraphicAlpha"
         in="fbSourceGraphic"
         values="0 0 0 -1 0 0 0 0 -1 0 0 0 0 -1 0 0 0 0 1 0"
         id="feColorMatrix1846" />
      <feColorMatrix
         id="feColorMatrix1848"
         values="1 0 0 0 0 0 1 0 0 0 0 0 1 0 0 -0.21 -0.72 -0.07 2 0 "
         result="color2"
         in="fbSourceGraphic" />
    </filter>
    <filter
       style="color-interpolation-filters:sRGB"
       inkscape:label="Invert"
       id="filter1608">
      <feColorMatrix
         values="1 0 0 0 0 0 1 0 0 0 0 0 1 0 0 -0.21 -0.72 -0.07 2 0 "
         result="fbSourceGraphic"
         id="feColorMatrix1606" />
      <feColorMatrix
         result="fbSourceGraphicAlpha"
         in="fbSourceGraphic"
         values="0 0 0 -1 0 0 0 0 -1 0 0 0 0 -1 0 0 0 0 1 0"
         id="feColorMatrix1850" />
      <feColorMatrix
         id="feColorMatrix1852"
         values="1 0 0 0 0 0 1 0 0 0 0 0 1 0 0 -0.21 -0.72 -0.07 2 0 "
         result="color2"
         in="fbSourceGraphic" />
    </filter>
    <filter
       style="color-interpolation-filters:sRGB"
       inkscape:label="Invert"
       id="filter1612">
      <feColorMatrix
         values="1 0 0 0 0 0 1 0 0 0 0 0 1 0 0 -0.21 -0.72 -0.07 2 0 "
         result="fbSourceGraphic"
         id="feColorMatrix1610" />
      <feColorMatrix
         result="fbSourceGraphicAlpha"
         in="fbSourceGraphic"
         values="0 0 0 -1 0 0 0 0 -1 0 0 0 0 -1 0 0 0 0 1 0"
         id="feColorMatrix1854" />
      <feColorMatrix
         id="feColorMatrix1856"
         values="1 0 0 0 0 0 1 0 0 0 0 0 1 0 0 -0.21 -0.72 -0.07 2 0 "
         result="color2"
         in="fbSourceGraphic" />
    </filter>
    <filter
       style="color-interpolation-filters:sRGB"
       inkscape:label="Invert"
       id="filter1616">
      <feColorMatrix
         values="1 0 0 0 0 0 1 0 0 0 0 0 1 0 0 -0.21 -0.72 -0.07 2 0 "
         result="fbSourceGraphic"
         id="feColorMatrix1614" />
      <feColorMatrix
         result="fbSourceGraphicAlpha"
         in="fbSourceGraphic"
         values="0 0 0 -1 0 0 0 0 -1 0 0 0 0 -1 0 0 0 0 1 0"
         id="feColorMatrix1858" />
      <feColorMatrix
         id="feColorMatrix1860"
         values="1 0 0 0 0 0 1 0 0 0 0 0 1 0 0 -0.21 -0.72 -0.07 2 0 "
         result="color2"
         in="fbSourceGraphic" />
    </filter>
    <filter
       style="color-interpolation-filters:sRGB"
       inkscape:label="Invert"
       id="filter1620">
      <feColorMatrix
         values="1 0 0 0 0 0 1 0 0 0 0 0 1 0 0 -0.21 -0.72 -0.07 2 0 "
         result="fbSourceGraphic"
         id="feColorMatrix1618" />
      <feColorMatrix
         result="fbSourceGraphicAlpha"
         in="fbSourceGraphic"
         values="0 0 0 -1 0 0 0 0 -1 0 0 0 0 -1 0 0 0 0 1 0"
         id="feColorMatrix1862" />
      <feColorMatrix
         id="feColorMatrix1864"
         values="1 0 0 0 0 0 1 0 0 0 0 0 1 0 0 -0.21 -0.72 -0.07 2 0 "
         result="color2"
         in="fbSourceGraphic" />
    </filter>
    <filter
       style="color-interpolation-filters:sRGB"
       inkscape:label="Invert"
       id="filter1624">
      <feColorMatrix
         values="1 0 0 0 0 0 1 0 0 0 0 0 1 0 0 -0.21 -0.72 -0.07 2 0 "
         result="fbSourceGraphic"
         id="feColorMatrix1622" />
      <feColorMatrix
         result="fbSourceGraphicAlpha"
         in="fbSourceGraphic"
         values="0 0 0 -1 0 0 0 0 -1 0 0 0 0 -1 0 0 0 0 1 0"
         id="feColorMatrix1866" />
      <feColorMatrix
         id="feColorMatrix1868"
         values="1 0 0 0 0 0 1 0 0 0 0 0 1 0 0 -0.21 -0.72 -0.07 2 0 "
         result="color2"
         in="fbSourceGraphic" />
    </filter>
    <filter
       style="color-interpolation-filters:sRGB"
       inkscape:label="Invert"
       id="filter1628">
      <feColorMatrix
         values="1 0 0 0 0 0 1 0 0 0 0 0 1 0 0 -0.21 -0.72 -0.07 2 0 "
         result="fbSourceGraphic"
         id="feColorMatrix1626" />
      <feColorMatrix
         result="fbSourceGraphicAlpha"
         in="fbSourceGraphic"
         values="0 0 0 -1 0 0 0 0 -1 0 0 0 0 -1 0 0 0 0 1 0"
         id="feColorMatrix1870" />
      <feColorMatrix
         id="feColorMatrix1872"
         values="1 0 0 0 0 0 1 0 0 0 0 0 1 0 0 -0.21 -0.72 -0.07 2 0 "
         result="color2"
         in="fbSourceGraphic" />
    </filter>
    <filter
       style="color-interpolation-filters:sRGB"
       inkscape:label="Invert"
       id="filter1632">
      <feColorMatrix
         values="1 0 0 0 0 0 1 0 0 0 0 0 1 0 0 -0.21 -0.72 -0.07 2 0 "
         result="fbSourceGraphic"
         id="feColorMatrix1630" />
      <feColorMatrix
         result="fbSourceGraphicAlpha"
         in="fbSourceGraphic"
         values="0 0 0 -1 0 0 0 0 -1 0 0 0 0 -1 0 0 0 0 1 0"
         id="feColorMatrix1874" />
      <feColorMatrix
         id="feColorMatrix1876"
         values="1 0 0 0 0 0 1 0 0 0 0 0 1 0 0 -0.21 -0.72 -0.07 2 0 "
         result="color2"
         in="fbSourceGraphic" />
    </filter>
    <filter
       style="color-interpolation-filters:sRGB"
       inkscape:label="Invert"
       id="filter1636">
      <feColorMatrix
         values="1 0 0 0 0 0 1 0 0 0 0 0 1 0 0 -0.21 -0.72 -0.07 2 0 "
         result="fbSourceGraphic"
         id="feColorMatrix1634" />
      <feColorMatrix
         result="fbSourceGraphicAlpha"
         in="fbSourceGraphic"
         values="0 0 0 -1 0 0 0 0 -1 0 0 0 0 -1 0 0 0 0 1 0"
         id="feColorMatrix1878" />
      <feColorMatrix
         id="feColorMatrix1880"
         values="1 0 0 0 0 0 1 0 0 0 0 0 1 0 0 -0.21 -0.72 -0.07 2 0 "
         result="color2"
         in="fbSourceGraphic" />
    </filter>
    <filter
       style="color-interpolation-filters:sRGB"
       inkscape:label="Invert"
       id="filter1640">
      <feColorMatrix
         values="1 0 0 0 0 0 1 0 0 0 0 0 1 0 0 -0.21 -0.72 -0.07 2 0 "
         result="fbSourceGraphic"
         id="feColorMatrix1638" />
      <feColorMatrix
         result="fbSourceGraphicAlpha"
         in="fbSourceGraphic"
         values="0 0 0 -1 0 0 0 0 -1 0 0 0 0 -1 0 0 0 0 1 0"
         id="feColorMatrix1882" />
      <feColorMatrix
         id="feColorMatrix1884"
         values="1 0 0 0 0 0 1 0 0 0 0 0 1 0 0 -0.21 -0.72 -0.07 2 0 "
         result="color2"
         in="fbSourceGraphic" />
    </filter>
    <filter
       style="color-interpolation-filters:sRGB"
       inkscape:label="Invert"
       id="filter1644">
      <feColorMatrix
         values="1 0 0 0 0 0 1 0 0 0 0 0 1 0 0 -0.21 -0.72 -0.07 2 0 "
         result="fbSourceGraphic"
         id="feColorMatrix1642" />
      <feColorMatrix
         result="fbSourceGraphicAlpha"
         in="fbSourceGraphic"
         values="0 0 0 -1 0 0 0 0 -1 0 0 0 0 -1 0 0 0 0 1 0"
         id="feColorMatrix1886" />
      <feColorMatrix
         id="feColorMatrix1888"
         values="1 0 0 0 0 0 1 0 0 0 0 0 1 0 0 -0.21 -0.72 -0.07 2 0 "
         result="color2"
         in="fbSourceGraphic" />
    </filter>
    <filter
       style="color-interpolation-filters:sRGB"
       inkscape:label="Invert"
       id="filter1648">
      <feColorMatrix
         values="1 0 0 0 0 0 1 0 0 0 0 0 1 0 0 -0.21 -0.72 -0.07 2 0 "
         result="fbSourceGraphic"
         id="feColorMatrix1646" />
      <feColorMatrix
         result="fbSourceGraphicAlpha"
         in="fbSourceGraphic"
         values="0 0 0 -1 0 0 0 0 -1 0 0 0 0 -1 0 0 0 0 1 0"
         id="feColorMatrix1890" />
      <feColorMatrix
         id="feColorMatrix1892"
         values="1 0 0 0 0 0 1 0 0 0 0 0 1 0 0 -0.21 -0.72 -0.07 2 0 "
         result="color2"
         in="fbSourceGraphic" />
    </filter>
    <filter
       style="color-interpolation-filters:sRGB"
       inkscape:label="Invert"
       id="filter1652">
      <feColorMatrix
         values="1 0 0 0 0 0 1 0 0 0 0 0 1 0 0 -0.21 -0.72 -0.07 2 0 "
         result="fbSourceGraphic"
         id="feColorMatrix1650" />
      <feColorMatrix
         result="fbSourceGraphicAlpha"
         in="fbSourceGraphic"
         values="0 0 0 -1 0 0 0 0 -1 0 0 0 0 -1 0 0 0 0 1 0"
         id="feColorMatrix1894" />
      <feColorMatrix
         id="feColorMatrix1896"
         values="1 0 0 0 0 0 1 0 0 0 0 0 1 0 0 -0.21 -0.72 -0.07 2 0 "
         result="color2"
         in="fbSourceGraphic" />
    </filter>
    <filter
       style="color-interpolation-filters:sRGB"
       inkscape:label="Invert"
       id="filter1656">
      <feColorMatrix
         values="1 0 0 0 0 0 1 0 0 0 0 0 1 0 0 -0.21 -0.72 -0.07 2 0 "
         result="fbSourceGraphic"
         id="feColorMatrix1654" />
      <feColorMatrix
         result="fbSourceGraphicAlpha"
         in="fbSourceGraphic"
         values="0 0 0 -1 0 0 0 0 -1 0 0 0 0 -1 0 0 0 0 1 0"
         id="feColorMatrix1898" />
      <feColorMatrix
         id="feColorMatrix1900"
         values="1 0 0 0 0 0 1 0 0 0 0 0 1 0 0 -0.21 -0.72 -0.07 2 0 "
         result="color2"
         in="fbSourceGraphic" />
    </filter>
    <filter
       style="color-interpolation-filters:sRGB"
       inkscape:label="Invert"
       id="filter1660">
      <feColorMatrix
         values="1 0 0 0 0 0 1 0 0 0 0 0 1 0 0 -0.21 -0.72 -0.07 2 0 "
         result="fbSourceGraphic"
         id="feColorMatrix1658" />
      <feColorMatrix
         result="fbSourceGraphicAlpha"
         in="fbSourceGraphic"
         values="0 0 0 -1 0 0 0 0 -1 0 0 0 0 -1 0 0 0 0 1 0"
         id="feColorMatrix1902" />
      <feColorMatrix
         id="feColorMatrix1904"
         values="1 0 0 0 0 0 1 0 0 0 0 0 1 0 0 -0.21 -0.72 -0.07 2 0 "
         result="color2"
         in="fbSourceGraphic" />
    </filter>
    <filter
       style="color-interpolation-filters:sRGB"
       inkscape:label="Invert"
       id="filter1664">
      <feColorMatrix
         values="1 0 0 0 0 0 1 0 0 0 0 0 1 0 0 -0.21 -0.72 -0.07 2 0 "
         result="fbSourceGraphic"
         id="feColorMatrix1662" />
      <feColorMatrix
         result="fbSourceGraphicAlpha"
         in="fbSourceGraphic"
         values="0 0 0 -1 0 0 0 0 -1 0 0 0 0 -1 0 0 0 0 1 0"
         id="feColorMatrix1906" />
      <feColorMatrix
         id="feColorMatrix1908"
         values="1 0 0 0 0 0 1 0 0 0 0 0 1 0 0 -0.21 -0.72 -0.07 2 0 "
         result="color2"
         in="fbSourceGraphic" />
    </filter>
    <filter
       style="color-interpolation-filters:sRGB"
       inkscape:label="Invert"
       id="filter1668">
      <feColorMatrix
         values="1 0 0 0 0 0 1 0 0 0 0 0 1 0 0 -0.21 -0.72 -0.07 2 0 "
         result="fbSourceGraphic"
         id="feColorMatrix1666" />
      <feColorMatrix
         result="fbSourceGraphicAlpha"
         in="fbSourceGraphic"
         values="0 0 0 -1 0 0 0 0 -1 0 0 0 0 -1 0 0 0 0 1 0"
         id="feColorMatrix1910" />
      <feColorMatrix
         id="feColorMatrix1912"
         values="1 0 0 0 0 0 1 0 0 0 0 0 1 0 0 -0.21 -0.72 -0.07 2 0 "
         result="color2"
         in="fbSourceGraphic" />
    </filter>
    <filter
       style="color-interpolation-filters:sRGB"
       inkscape:label="Invert"
       id="filter1672">
      <feColorMatrix
         values="1 0 0 0 0 0 1 0 0 0 0 0 1 0 0 -0.21 -0.72 -0.07 2 0 "
         result="fbSourceGraphic"
         id="feColorMatrix1670" />
      <feColorMatrix
         result="fbSourceGraphicAlpha"
         in="fbSourceGraphic"
         values="0 0 0 -1 0 0 0 0 -1 0 0 0 0 -1 0 0 0 0 1 0"
         id="feColorMatrix1914" />
      <feColorMatrix
         id="feColorMatrix1916"
         values="1 0 0 0 0 0 1 0 0 0 0 0 1 0 0 -0.21 -0.72 -0.07 2 0 "
         result="color2"
         in="fbSourceGraphic" />
    </filter>
    <filter
       style="color-interpolation-filters:sRGB"
       inkscape:label="Invert"
       id="filter1676">
      <feColorMatrix
         values="1 0 0 0 0 0 1 0 0 0 0 0 1 0 0 -0.21 -0.72 -0.07 2 0 "
         result="fbSourceGraphic"
         id="feColorMatrix1674" />
      <feColorMatrix
         result="fbSourceGraphicAlpha"
         in="fbSourceGraphic"
         values="0 0 0 -1 0 0 0 0 -1 0 0 0 0 -1 0 0 0 0 1 0"
         id="feColorMatrix1918" />
      <feColorMatrix
         id="feColorMatrix1920"
         values="1 0 0 0 0 0 1 0 0 0 0 0 1 0 0 -0.21 -0.72 -0.07 2 0 "
         result="color2"
         in="fbSourceGraphic" />
    </filter>
    <filter
       style="color-interpolation-filters:sRGB"
       inkscape:label="Invert"
       id="filter1680">
      <feColorMatrix
         values="1 0 0 0 0 0 1 0 0 0 0 0 1 0 0 -0.21 -0.72 -0.07 2 0 "
         result="fbSourceGraphic"
         id="feColorMatrix1678" />
      <feColorMatrix
         result="fbSourceGraphicAlpha"
         in="fbSourceGraphic"
         values="0 0 0 -1 0 0 0 0 -1 0 0 0 0 -1 0 0 0 0 1 0"
         id="feColorMatrix1922" />
      <feColorMatrix
         id="feColorMatrix1924"
         values="1 0 0 0 0 0 1 0 0 0 0 0 1 0 0 -0.21 -0.72 -0.07 2 0 "
         result="color2"
         in="fbSourceGraphic" />
    </filter>
    <filter
       style="color-interpolation-filters:sRGB"
       inkscape:label="Invert"
       id="filter1684">
      <feColorMatrix
         values="1 0 0 0 0 0 1 0 0 0 0 0 1 0 0 -0.21 -0.72 -0.07 2 0 "
         result="fbSourceGraphic"
         id="feColorMatrix1682" />
      <feColorMatrix
         result="fbSourceGraphicAlpha"
         in="fbSourceGraphic"
         values="0 0 0 -1 0 0 0 0 -1 0 0 0 0 -1 0 0 0 0 1 0"
         id="feColorMatrix1926" />
      <feColorMatrix
         id="feColorMatrix1928"
         values="1 0 0 0 0 0 1 0 0 0 0 0 1 0 0 -0.21 -0.72 -0.07 2 0 "
         result="color2"
         in="fbSourceGraphic" />
    </filter>
    <filter
       style="color-interpolation-filters:sRGB"
       inkscape:label="Invert"
       id="filter1688">
      <feColorMatrix
         values="1 0 0 0 0 0 1 0 0 0 0 0 1 0 0 -0.21 -0.72 -0.07 2 0 "
         result="fbSourceGraphic"
         id="feColorMatrix1686" />
      <feColorMatrix
         result="fbSourceGraphicAlpha"
         in="fbSourceGraphic"
         values="0 0 0 -1 0 0 0 0 -1 0 0 0 0 -1 0 0 0 0 1 0"
         id="feColorMatrix1930" />
      <feColorMatrix
         id="feColorMatrix1932"
         values="1 0 0 0 0 0 1 0 0 0 0 0 1 0 0 -0.21 -0.72 -0.07 2 0 "
         result="color2"
         in="fbSourceGraphic" />
    </filter>
    <filter
       style="color-interpolation-filters:sRGB"
       inkscape:label="Invert"
       id="filter1692">
      <feColorMatrix
         values="1 0 0 0 0 0 1 0 0 0 0 0 1 0 0 -0.21 -0.72 -0.07 2 0 "
         result="fbSourceGraphic"
         id="feColorMatrix1690" />
      <feColorMatrix
         result="fbSourceGraphicAlpha"
         in="fbSourceGraphic"
         values="0 0 0 -1 0 0 0 0 -1 0 0 0 0 -1 0 0 0 0 1 0"
         id="feColorMatrix1934" />
      <feColorMatrix
         id="feColorMatrix1936"
         values="1 0 0 0 0 0 1 0 0 0 0 0 1 0 0 -0.21 -0.72 -0.07 2 0 "
         result="color2"
         in="fbSourceGraphic" />
    </filter>
    <filter
       style="color-interpolation-filters:sRGB"
       inkscape:label="Invert"
       id="filter1696">
      <feColorMatrix
         values="1 0 0 0 0 0 1 0 0 0 0 0 1 0 0 -0.21 -0.72 -0.07 2 0 "
         result="fbSourceGraphic"
         id="feColorMatrix1694" />
      <feColorMatrix
         result="fbSourceGraphicAlpha"
         in="fbSourceGraphic"
         values="0 0 0 -1 0 0 0 0 -1 0 0 0 0 -1 0 0 0 0 1 0"
         id="feColorMatrix1938" />
      <feColorMatrix
         id="feColorMatrix1940"
         values="1 0 0 0 0 0 1 0 0 0 0 0 1 0 0 -0.21 -0.72 -0.07 2 0 "
         result="color2"
         in="fbSourceGraphic" />
    </filter>
    <filter
       style="color-interpolation-filters:sRGB"
       inkscape:label="Invert"
       id="filter1700">
      <feColorMatrix
         values="1 0 0 0 0 0 1 0 0 0 0 0 1 0 0 -0.21 -0.72 -0.07 2 0 "
         result="fbSourceGraphic"
         id="feColorMatrix1698" />
      <feColorMatrix
         result="fbSourceGraphicAlpha"
         in="fbSourceGraphic"
         values="0 0 0 -1 0 0 0 0 -1 0 0 0 0 -1 0 0 0 0 1 0"
         id="feColorMatrix1942" />
      <feColorMatrix
         id="feColorMatrix1944"
         values="1 0 0 0 0 0 1 0 0 0 0 0 1 0 0 -0.21 -0.72 -0.07 2 0 "
         result="color2"
         in="fbSourceGraphic" />
    </filter>
    <filter
       style="color-interpolation-filters:sRGB"
       inkscape:label="Invert"
       id="filter1704">
      <feColorMatrix
         values="1 0 0 0 0 0 1 0 0 0 0 0 1 0 0 -0.21 -0.72 -0.07 2 0 "
         result="fbSourceGraphic"
         id="feColorMatrix1702" />
      <feColorMatrix
         result="fbSourceGraphicAlpha"
         in="fbSourceGraphic"
         values="0 0 0 -1 0 0 0 0 -1 0 0 0 0 -1 0 0 0 0 1 0"
         id="feColorMatrix1946" />
      <feColorMatrix
         id="feColorMatrix1948"
         values="1 0 0 0 0 0 1 0 0 0 0 0 1 0 0 -0.21 -0.72 -0.07 2 0 "
         result="color2"
         in="fbSourceGraphic" />
    </filter>
    <filter
       style="color-interpolation-filters:sRGB"
       inkscape:label="Invert"
       id="filter1708">
      <feColorMatrix
         values="1 0 0 0 0 0 1 0 0 0 0 0 1 0 0 -0.21 -0.72 -0.07 2 0 "
         result="fbSourceGraphic"
         id="feColorMatrix1706" />
      <feColorMatrix
         result="fbSourceGraphicAlpha"
         in="fbSourceGraphic"
         values="0 0 0 -1 0 0 0 0 -1 0 0 0 0 -1 0 0 0 0 1 0"
         id="feColorMatrix1950" />
      <feColorMatrix
         id="feColorMatrix1952"
         values="1 0 0 0 0 0 1 0 0 0 0 0 1 0 0 -0.21 -0.72 -0.07 2 0 "
         result="color2"
         in="fbSourceGraphic" />
    </filter>
    <filter
       style="color-interpolation-filters:sRGB"
       inkscape:label="Invert"
       id="filter1712">
      <feColorMatrix
         values="1 0 0 0 0 0 1 0 0 0 0 0 1 0 0 -0.21 -0.72 -0.07 2 0 "
         result="fbSourceGraphic"
         id="feColorMatrix1710" />
      <feColorMatrix
         result="fbSourceGraphicAlpha"
         in="fbSourceGraphic"
         values="0 0 0 -1 0 0 0 0 -1 0 0 0 0 -1 0 0 0 0 1 0"
         id="feColorMatrix1954" />
      <feColorMatrix
         id="feColorMatrix1956"
         values="1 0 0 0 0 0 1 0 0 0 0 0 1 0 0 -0.21 -0.72 -0.07 2 0 "
         result="color2"
         in="fbSourceGraphic" />
    </filter>
    <filter
       style="color-interpolation-filters:sRGB"
       inkscape:label="Invert"
       id="filter1716">
      <feColorMatrix
         values="1 0 0 0 0 0 1 0 0 0 0 0 1 0 0 -0.21 -0.72 -0.07 2 0 "
         result="fbSourceGraphic"
         id="feColorMatrix1714" />
      <feColorMatrix
         result="fbSourceGraphicAlpha"
         in="fbSourceGraphic"
         values="0 0 0 -1 0 0 0 0 -1 0 0 0 0 -1 0 0 0 0 1 0"
         id="feColorMatrix1958" />
      <feColorMatrix
         id="feColorMatrix1960"
         values="1 0 0 0 0 0 1 0 0 0 0 0 1 0 0 -0.21 -0.72 -0.07 2 0 "
         result="color2"
         in="fbSourceGraphic" />
    </filter>
    <filter
       style="color-interpolation-filters:sRGB"
       inkscape:label="Invert"
       id="filter1720">
      <feColorMatrix
         values="1 0 0 0 0 0 1 0 0 0 0 0 1 0 0 -0.21 -0.72 -0.07 2 0 "
         result="fbSourceGraphic"
         id="feColorMatrix1718" />
      <feColorMatrix
         result="fbSourceGraphicAlpha"
         in="fbSourceGraphic"
         values="0 0 0 -1 0 0 0 0 -1 0 0 0 0 -1 0 0 0 0 1 0"
         id="feColorMatrix1962" />
      <feColorMatrix
         id="feColorMatrix1964"
         values="1 0 0 0 0 0 1 0 0 0 0 0 1 0 0 -0.21 -0.72 -0.07 2 0 "
         result="color2"
         in="fbSourceGraphic" />
    </filter>
    <filter
       style="color-interpolation-filters:sRGB"
       inkscape:label="Invert"
       id="filter1724">
      <feColorMatrix
         values="1 0 0 0 0 0 1 0 0 0 0 0 1 0 0 -0.21 -0.72 -0.07 2 0 "
         result="fbSourceGraphic"
         id="feColorMatrix1722" />
      <feColorMatrix
         result="fbSourceGraphicAlpha"
         in="fbSourceGraphic"
         values="0 0 0 -1 0 0 0 0 -1 0 0 0 0 -1 0 0 0 0 1 0"
         id="feColorMatrix1966" />
      <feColorMatrix
         id="feColorMatrix1968"
         values="1 0 0 0 0 0 1 0 0 0 0 0 1 0 0 -0.21 -0.72 -0.07 2 0 "
         result="color2"
         in="fbSourceGraphic" />
    </filter>
    <filter
       style="color-interpolation-filters:sRGB"
       inkscape:label="Invert"
       id="filter1728">
      <feColorMatrix
         values="1 0 0 0 0 0 1 0 0 0 0 0 1 0 0 -0.21 -0.72 -0.07 2 0 "
         result="fbSourceGraphic"
         id="feColorMatrix1726" />
      <feColorMatrix
         result="fbSourceGraphicAlpha"
         in="fbSourceGraphic"
         values="0 0 0 -1 0 0 0 0 -1 0 0 0 0 -1 0 0 0 0 1 0"
         id="feColorMatrix1970" />
      <feColorMatrix
         id="feColorMatrix1972"
         values="1 0 0 0 0 0 1 0 0 0 0 0 1 0 0 -0.21 -0.72 -0.07 2 0 "
         result="color2"
         in="fbSourceGraphic" />
    </filter>
    <filter
       style="color-interpolation-filters:sRGB"
       inkscape:label="Invert"
       id="filter1732">
      <feColorMatrix
         values="1 0 0 0 0 0 1 0 0 0 0 0 1 0 0 -0.21 -0.72 -0.07 2 0 "
         result="fbSourceGraphic"
         id="feColorMatrix1730" />
      <feColorMatrix
         result="fbSourceGraphicAlpha"
         in="fbSourceGraphic"
         values="0 0 0 -1 0 0 0 0 -1 0 0 0 0 -1 0 0 0 0 1 0"
         id="feColorMatrix1974" />
      <feColorMatrix
         id="feColorMatrix1976"
         values="1 0 0 0 0 0 1 0 0 0 0 0 1 0 0 -0.21 -0.72 -0.07 2 0 "
         result="color2"
         in="fbSourceGraphic" />
    </filter>
    <filter
       style="color-interpolation-filters:sRGB"
       inkscape:label="Invert"
       id="filter1736">
      <feColorMatrix
         values="1 0 0 0 0 0 1 0 0 0 0 0 1 0 0 -0.21 -0.72 -0.07 2 0 "
         result="fbSourceGraphic"
         id="feColorMatrix1734" />
      <feColorMatrix
         result="fbSourceGraphicAlpha"
         in="fbSourceGraphic"
         values="0 0 0 -1 0 0 0 0 -1 0 0 0 0 -1 0 0 0 0 1 0"
         id="feColorMatrix1978" />
      <feColorMatrix
         id="feColorMatrix1980"
         values="1 0 0 0 0 0 1 0 0 0 0 0 1 0 0 -0.21 -0.72 -0.07 2 0 "
         result="color2"
         in="fbSourceGraphic" />
    </filter>
    <filter
       style="color-interpolation-filters:sRGB"
       inkscape:label="Invert"
       id="filter1740">
      <feColorMatrix
         values="1 0 0 0 0 0 1 0 0 0 0 0 1 0 0 -0.21 -0.72 -0.07 2 0 "
         result="fbSourceGraphic"
         id="feColorMatrix1738" />
      <feColorMatrix
         result="fbSourceGraphicAlpha"
         in="fbSourceGraphic"
         values="0 0 0 -1 0 0 0 0 -1 0 0 0 0 -1 0 0 0 0 1 0"
         id="feColorMatrix1982" />
      <feColorMatrix
         id="feColorMatrix1984"
         values="1 0 0 0 0 0 1 0 0 0 0 0 1 0 0 -0.21 -0.72 -0.07 2 0 "
         result="color2"
         in="fbSourceGraphic" />
    </filter>
    <filter
       style="color-interpolation-filters:sRGB"
       inkscape:label="Invert"
       id="filter1744">
      <feColorMatrix
         values="1 0 0 0 0 0 1 0 0 0 0 0 1 0 0 -0.21 -0.72 -0.07 2 0 "
         result="fbSourceGraphic"
         id="feColorMatrix1742" />
      <feColorMatrix
         result="fbSourceGraphicAlpha"
         in="fbSourceGraphic"
         values="0 0 0 -1 0 0 0 0 -1 0 0 0 0 -1 0 0 0 0 1 0"
         id="feColorMatrix1986" />
      <feColorMatrix
         id="feColorMatrix1988"
         values="1 0 0 0 0 0 1 0 0 0 0 0 1 0 0 -0.21 -0.72 -0.07 2 0 "
         result="color2"
         in="fbSourceGraphic" />
    </filter>
    <filter
       style="color-interpolation-filters:sRGB"
       inkscape:label="Invert"
       id="filter1748">
      <feColorMatrix
         values="1 0 0 0 0 0 1 0 0 0 0 0 1 0 0 -0.21 -0.72 -0.07 2 0 "
         result="fbSourceGraphic"
         id="feColorMatrix1746" />
      <feColorMatrix
         result="fbSourceGraphicAlpha"
         in="fbSourceGraphic"
         values="0 0 0 -1 0 0 0 0 -1 0 0 0 0 -1 0 0 0 0 1 0"
         id="feColorMatrix1990" />
      <feColorMatrix
         id="feColorMatrix1992"
         values="1 0 0 0 0 0 1 0 0 0 0 0 1 0 0 -0.21 -0.72 -0.07 2 0 "
         result="color2"
         in="fbSourceGraphic" />
    </filter>
    <filter
       style="color-interpolation-filters:sRGB"
       inkscape:label="Invert"
       id="filter1752">
      <feColorMatrix
         values="1 0 0 0 0 0 1 0 0 0 0 0 1 0 0 -0.21 -0.72 -0.07 2 0 "
         result="fbSourceGraphic"
         id="feColorMatrix1750" />
      <feColorMatrix
         result="fbSourceGraphicAlpha"
         in="fbSourceGraphic"
         values="0 0 0 -1 0 0 0 0 -1 0 0 0 0 -1 0 0 0 0 1 0"
         id="feColorMatrix1994" />
      <feColorMatrix
         id="feColorMatrix1996"
         values="1 0 0 0 0 0 1 0 0 0 0 0 1 0 0 -0.21 -0.72 -0.07 2 0 "
         result="color2"
         in="fbSourceGraphic" />
    </filter>
    <filter
       style="color-interpolation-filters:sRGB"
       inkscape:label="Invert"
       id="filter1756">
      <feColorMatrix
         values="1 0 0 0 0 0 1 0 0 0 0 0 1 0 0 -0.21 -0.72 -0.07 2 0 "
         result="fbSourceGraphic"
         id="feColorMatrix1754" />
      <feColorMatrix
         result="fbSourceGraphicAlpha"
         in="fbSourceGraphic"
         values="0 0 0 -1 0 0 0 0 -1 0 0 0 0 -1 0 0 0 0 1 0"
         id="feColorMatrix1998" />
      <feColorMatrix
         id="feColorMatrix2000"
         values="1 0 0 0 0 0 1 0 0 0 0 0 1 0 0 -0.21 -0.72 -0.07 2 0 "
         result="color2"
         in="fbSourceGraphic" />
    </filter>
    <filter
       style="color-interpolation-filters:sRGB"
       inkscape:label="Invert"
       id="filter1760">
      <feColorMatrix
         values="1 0 0 0 0 0 1 0 0 0 0 0 1 0 0 -0.21 -0.72 -0.07 2 0 "
         result="fbSourceGraphic"
         id="feColorMatrix1758" />
      <feColorMatrix
         result="fbSourceGraphicAlpha"
         in="fbSourceGraphic"
         values="0 0 0 -1 0 0 0 0 -1 0 0 0 0 -1 0 0 0 0 1 0"
         id="feColorMatrix2002" />
      <feColorMatrix
         id="feColorMatrix2004"
         values="1 0 0 0 0 0 1 0 0 0 0 0 1 0 0 -0.21 -0.72 -0.07 2 0 "
         result="color2"
         in="fbSourceGraphic" />
    </filter>
    <filter
       style="color-interpolation-filters:sRGB"
       inkscape:label="Invert"
       id="filter1764">
      <feColorMatrix
         values="1 0 0 0 0 0 1 0 0 0 0 0 1 0 0 -0.21 -0.72 -0.07 2 0 "
         result="fbSourceGraphic"
         id="feColorMatrix1762" />
      <feColorMatrix
         result="fbSourceGraphicAlpha"
         in="fbSourceGraphic"
         values="0 0 0 -1 0 0 0 0 -1 0 0 0 0 -1 0 0 0 0 1 0"
         id="feColorMatrix2006" />
      <feColorMatrix
         id="feColorMatrix2008"
         values="1 0 0 0 0 0 1 0 0 0 0 0 1 0 0 -0.21 -0.72 -0.07 2 0 "
         result="color2"
         in="fbSourceGraphic" />
    </filter>
    <filter
       style="color-interpolation-filters:sRGB"
       inkscape:label="Invert"
       id="filter1768">
      <feColorMatrix
         values="1 0 0 0 0 0 1 0 0 0 0 0 1 0 0 -0.21 -0.72 -0.07 2 0 "
         result="fbSourceGraphic"
         id="feColorMatrix1766" />
      <feColorMatrix
         result="fbSourceGraphicAlpha"
         in="fbSourceGraphic"
         values="0 0 0 -1 0 0 0 0 -1 0 0 0 0 -1 0 0 0 0 1 0"
         id="feColorMatrix2010" />
      <feColorMatrix
         id="feColorMatrix2012"
         values="1 0 0 0 0 0 1 0 0 0 0 0 1 0 0 -0.21 -0.72 -0.07 2 0 "
         result="color2"
         in="fbSourceGraphic" />
    </filter>
    <filter
       style="color-interpolation-filters:sRGB"
       inkscape:label="Invert"
       id="filter1772">
      <feColorMatrix
         values="1 0 0 0 0 0 1 0 0 0 0 0 1 0 0 -0.21 -0.72 -0.07 2 0 "
         result="fbSourceGraphic"
         id="feColorMatrix1770" />
      <feColorMatrix
         result="fbSourceGraphicAlpha"
         in="fbSourceGraphic"
         values="0 0 0 -1 0 0 0 0 -1 0 0 0 0 -1 0 0 0 0 1 0"
         id="feColorMatrix2014" />
      <feColorMatrix
         id="feColorMatrix2016"
         values="1 0 0 0 0 0 1 0 0 0 0 0 1 0 0 -0.21 -0.72 -0.07 2 0 "
         result="color2"
         in="fbSourceGraphic" />
    </filter>
    <filter
       style="color-interpolation-filters:sRGB"
       inkscape:label="Invert"
       id="filter1776">
      <feColorMatrix
         values="1 0 0 0 0 0 1 0 0 0 0 0 1 0 0 -0.21 -0.72 -0.07 2 0 "
         result="fbSourceGraphic"
         id="feColorMatrix1774" />
      <feColorMatrix
         result="fbSourceGraphicAlpha"
         in="fbSourceGraphic"
         values="0 0 0 -1 0 0 0 0 -1 0 0 0 0 -1 0 0 0 0 1 0"
         id="feColorMatrix2018" />
      <feColorMatrix
         id="feColorMatrix2020"
         values="1 0 0 0 0 0 1 0 0 0 0 0 1 0 0 -0.21 -0.72 -0.07 2 0 "
         result="color2"
         in="fbSourceGraphic" />
    </filter>
    <filter
       style="color-interpolation-filters:sRGB"
       inkscape:label="Invert"
       id="filter1780">
      <feColorMatrix
         values="1 0 0 0 0 0 1 0 0 0 0 0 1 0 0 -0.21 -0.72 -0.07 2 0 "
         result="fbSourceGraphic"
         id="feColorMatrix1778" />
      <feColorMatrix
         result="fbSourceGraphicAlpha"
         in="fbSourceGraphic"
         values="0 0 0 -1 0 0 0 0 -1 0 0 0 0 -1 0 0 0 0 1 0"
         id="feColorMatrix2022" />
      <feColorMatrix
         id="feColorMatrix2024"
         values="1 0 0 0 0 0 1 0 0 0 0 0 1 0 0 -0.21 -0.72 -0.07 2 0 "
         result="color2"
         in="fbSourceGraphic" />
    </filter>
    <filter
       style="color-interpolation-filters:sRGB"
       inkscape:label="Invert"
       id="filter1784">
      <feColorMatrix
         values="1 0 0 0 0 0 1 0 0 0 0 0 1 0 0 -0.21 -0.72 -0.07 2 0 "
         result="fbSourceGraphic"
         id="feColorMatrix1782" />
      <feColorMatrix
         result="fbSourceGraphicAlpha"
         in="fbSourceGraphic"
         values="0 0 0 -1 0 0 0 0 -1 0 0 0 0 -1 0 0 0 0 1 0"
         id="feColorMatrix2026" />
      <feColorMatrix
         id="feColorMatrix2028"
         values="1 0 0 0 0 0 1 0 0 0 0 0 1 0 0 -0.21 -0.72 -0.07 2 0 "
         result="color2"
         in="fbSourceGraphic" />
    </filter>
    <filter
       style="color-interpolation-filters:sRGB"
       inkscape:label="Invert"
       id="filter1788">
      <feColorMatrix
         values="1 0 0 0 0 0 1 0 0 0 0 0 1 0 0 -0.21 -0.72 -0.07 2 0 "
         result="fbSourceGraphic"
         id="feColorMatrix1786" />
      <feColorMatrix
         result="fbSourceGraphicAlpha"
         in="fbSourceGraphic"
         values="0 0 0 -1 0 0 0 0 -1 0 0 0 0 -1 0 0 0 0 1 0"
         id="feColorMatrix2030" />
      <feColorMatrix
         id="feColorMatrix2032"
         values="1 0 0 0 0 0 1 0 0 0 0 0 1 0 0 -0.21 -0.72 -0.07 2 0 "
         result="color2"
         in="fbSourceGraphic" />
    </filter>
  </defs>
  <sodipodi:namedview
     id="base"
     pagecolor="#ffffff"
     bordercolor="#666666"
     borderopacity="1.0"
     inkscape:pageopacity="0.0"
     inkscape:pageshadow="2"
     inkscape:zoom="1.4142136"
     inkscape:cx="354.4303"
     inkscape:cy="290.48036"
     inkscape:document-units="mm"
     inkscape:current-layer="g947"
     inkscape:document-rotation="0"
     showgrid="false"
     inkscape:window-width="1920"
     inkscape:window-height="1051"
     inkscape:window-x="1920"
     inkscape:window-y="0"
     inkscape:window-maximized="1"
     units="px"
     inkscape:snap-global="true" />
  <metadata
     id="metadata5">
    <rdf:RDF>
      <cc:Work
         rdf:about="">
        <dc:format>image/svg+xml</dc:format>
        <dc:type
           rdf:resource="http://purl.org/dc/dcmitype/StillImage" />
        <dc:title></dc:title>
      </cc:Work>
    </rdf:RDF>
  </metadata>
  <g
     inkscape:label="Layer 1"
     inkscape:groupmode="layer"
     id="layer1">
    <g
       transform="matrix(0.09704494,0,0,-0.09517363,-74.075642,317.7372)"
       fill="#000000"
       stroke="none"
       id="g947">
      <path
         d="m 1833.8237,3086.3861 c -2.2728,-5.3033 -1.5152,-65.9124 2.2728,-134.8553 3.0305,-68.9429 6.061,-131.0673 6.061,-137.8859 0.7576,-7.5761 4.5456,-13.637 9.0913,-13.637 6.8186,0 7.5762,37.1231 3.7881,142.4315 -5.3033,129.552 -11.3642,170.4632 -21.2132,143.9467 z"
         id="path837"
         style="stroke-width:0.757614;filter:url(#filter1548)"
         transform="matrix(1.3877131,0,0,1.4285997,-855.94996,-1067.4558)" />
      <path
         d="m 1787.6092,3009.8671 c -2.2728,-6.0609 3.0305,-56.0635 11.3642,-110.6117 12.1219,-75.7615 18.1828,-99.2475 26.5165,-99.2475 8.3338,0 10.6066,5.3033 6.8186,17.4251 -2.2729,9.0914 -9.849,56.0635 -16.6675,103.7932 -12.8795,87.1256 -19.698,109.0965 -28.0318,88.6409 z"
         id="path839"
         style="stroke-width:0.757614;filter:url(#filter1552)"
         transform="matrix(1.3877131,0,0,1.4285997,-855.94996,-1067.4558)" />
      <path
         d="m 1877.0077,2923.499 c -9.849,-137.8858 -11.3642,-127.2792 17.4252,-126.5216 12.8794,0 24.2436,-2.2728 24.2436,-5.3033 0,-3.0304 9.0914,-7.5761 19.698,-9.849 10.6066,-3.0304 33.335,-13.637 50.0025,-24.2436 29.547,-18.9404 51.5178,-19.698 51.5178,-3.0305 0,5.3033 -6.0609,6.8186 -16.6675,3.0305 -15.1523,-4.5457 -15.9099,-3.7881 -7.5761,6.8185 14.3946,16.6675 4.5456,31.8198 -12.1219,18.9404 -9.849,-9.0914 -10.6066,-7.5762 -3.0304,6.8185 40.5149,75.3012 -3.0281,30.309 -21.9709,8.3338 l -15.1522,-17.4252 12.1218,24.2437 c 6.0609,13.637 11.3642,36.3655 11.3642,36.3655 0,0 -12.8794,12.1218 -26.5165,-18.9404 -18.1827,-40.1535 -21.2132,-34.8502 -7.5761,11.3642 12.8794,42.4264 14.3946,56.8211 4.5456,56.8211 -3.788,0 -12.8794,-18.1827 -20.4555,-39.3959 -16.6676,-51.5178 -21.2132,-37.8808 -8.3338,25.0012 5.3033,26.5165 9.0914,53.033 6.8185,58.3363 -6.8185,21.9709 -15.9099,5.3033 -24.2436,-45.4568 -11.3642,-67.4277 -21.9708,-96.9747 -21.9708,-62.882 0,12.8794 3.0304,53.7906 6.0609,90.9137 3.788,37.8807 4.5457,72.731 3.0304,78.0343 -9.849,25.0013 -16.6675,2.2728 -21.2132,-71.9734 z"
         id="path841"
         style="stroke-width:0.757614;filter:url(#filter1556)"
         sodipodi:nodetypes="ccsccsccccccccccsccccsccc"
         transform="matrix(1.3877131,0,0,1.4285997,-855.94996,-1067.4558)" />
      <path
         d="m 1766.4187,2887.5523 c 7.5761,-45.4569 24.221,-95.1206 31.0395,-95.1206 11.3642,0 9.849,11.3643 -12.1218,88.6409 -19.698,68.1853 -43.5918,109.0002 -18.9177,6.4797 z"
         id="path843"
         style="stroke-width:0.757614;filter:url(#filter1560)"
         sodipodi:nodetypes="cscc"
         transform="matrix(1.3877131,0,0,1.4285997,-855.94996,-1067.4558)" />
      <path
         d="m 1721.6968,2896.9825 c 0,-21.2132 40.9112,-104.5508 50.7601,-104.5508 6.061,0 9.849,3.0305 8.3338,6.061 -39.396,95.4594 -59.0939,128.0368 -59.0939,98.4898 z"
         id="path845"
         style="stroke-width:0.757614;filter:url(#filter1564)"
         transform="matrix(1.3877131,0,0,1.4285997,-855.94996,-1067.4558)" />
      <path
         d="m 1698.9683,2852.2833 c 0,-17.4251 40.1536,-75.7615 46.9721,-68.9429 5.3033,5.3033 0,19.6979 -12.8794,42.4264 -18.9404,33.335 -34.0927,44.6992 -34.0927,26.5165 z"
         id="path847"
         style="stroke-width:0.757614;filter:url(#filter1568)"
         transform="matrix(1.3877131,0,0,1.4285997,-855.94996,-1067.4558)" />
      <path
         d="m 1681.5432,2825.7668 c -6.0609,-10.6066 24.2437,-56.0635 37.1231,-56.0635 15.1523,0 12.8795,8.3338 -11.3642,37.1231 -11.3642,14.3947 -23.486,22.7285 -25.7589,18.9404 z"
         id="path849"
         style="stroke-width:0.757614;filter:url(#filter1572)"
         transform="matrix(1.3877131,0,0,1.4285997,-855.94996,-1067.4558)" />
      <path
         d="m 1661.0876,2790.1589 c 0,-12.1218 24.2437,-35.6079 36.3655,-35.6079 14.3947,0 10.6066,10.6066 -8.3337,28.7894 -20.4556,18.9403 -28.0318,21.2132 -28.0318,6.8185 z"
         id="path851"
         style="stroke-width:0.757614;filter:url(#filter1576)"
         transform="matrix(1.3877131,0,0,1.4285997,-855.94996,-1067.4558)" />
      <path
         d="m 1787.6092,2776.5218 c -48.4873,-11.3642 -101.5203,-43.184 -153.0381,-90.9137 -27.2741,-25.7589 -48.4873,-48.4873 -46.2145,-50.0025 1.5153,-1.5153 22.7285,9.849 47.7298,26.5165 91.6713,62.1244 171.9784,89.3985 244.7094,82.5799 46.9721,-3.788 113.6421,-34.0926 168.948,-76.519 46.2145,-34.8503 58.3363,-20.4556 14.3947,18.1827 -40.1536,36.3655 -109.0965,72.731 -164.4023,87.1257 -49.245,12.8794 -68.943,12.8794 -112.127,3.0304 z"
         id="path853"
         style="stroke-width:0.757614;filter:url(#filter1580)"
         transform="matrix(1.3877131,0,0,1.4285997,-855.94996,-1067.4558)" />
      <path
         d="m 1647.4506,2756.8239 c 1.5152,-7.5762 10.6066,-15.1523 21.2132,-16.6675 18.9403,-2.2729 18.9403,-2.2729 4.5457,13.637 -17.4252,19.698 -29.547,20.4556 -25.7589,3.0305 z"
         id="path855"
         style="stroke-width:0.757614;filter:url(#filter1584)"
         transform="matrix(1.3877131,0,0,1.4285997,-855.94996,-1067.4558)" />
      <path
         d="m 1632.2983,2730.3074 c 3.7881,-11.3642 21.2132,-13.6371 21.9708,-2.2729 0,4.5457 -5.3033,9.0914 -12.8794,9.849 -7.5762,2.2729 -11.3643,-0.7576 -9.0914,-7.5761 z"
         id="path857"
         style="stroke-width:0.757614;filter:url(#filter1588)"
         transform="matrix(1.3877131,0,0,1.4285997,-855.94996,-1067.4558)" />
      <path
         d="m 2032.3187,2731.8226 c 0,-3.7881 6.8185,-10.6066 15.9099,-15.1523 14.3946,-8.3337 15.1523,-7.5761 6.8185,6.8185 -8.3338,16.6676 -22.7284,21.9709 -22.7284,8.3338 z"
         id="path859"
         style="stroke-width:0.757614;filter:url(#filter1592)"
         transform="matrix(1.3877131,0,0,1.4285997,-855.94996,-1067.4558)" />
      <path
         d="m 1759.5775,2715.1551 c -77.2767,-27.2741 -226.5267,-139.4011 -253.8008,-191.6765 -14.3947,-27.2741 -14.3947,-28.7893 -0.7576,-37.8807 7.5761,-6.0609 27.2741,-12.8794 43.184,-15.1523 16.6675,-3.0304 34.8502,-10.6066 41.6688,-16.6675 263.1464,-138.1596 255.3136,-78.3275 343.8606,-62.9494 62.1244,20.4556 146.3159,48.5547 169.0443,74.3136 11.3642,12.8795 12.1218,15.1523 2.2728,18.9404 -6.0609,2.2728 -18.9403,-1.5152 -28.7893,-9.0914 -52.2754,-40.9112 -131.8249,-64.3972 -218.9506,-63.6396 -70.4581,0 -123.4911,12.1218 -188.6459,42.4264 -27.2741,12.1219 -67.4277,25.0013 -90.1561,28.7894 -56.0635,8.3337 -66.6701,26.5165 -37.8808,62.882 21.9709,28.0317 212.1321,121.9759 269.7108,133.3401 81.0647,15.9099 153.7957,-9.0914 248.4975,-87.1257 46.9721,-38.6383 82.5799,-56.821 91.6713,-46.9721 10.6066,10.6066 -21.9708,49.245 -71.9734,85.6105 -134.0977,96.9746 -218.9505,119.703 -318.9556,84.8528 z"
         id="path861"
         style="stroke-width:0.757614;filter:url(#filter1596)"
         sodipodi:nodetypes="ccccccsccccccccccc"
         transform="matrix(1.3877131,0,0,1.4285997,-855.94996,-1067.4558)" />
      <path
         d="m 1615.6308,2705.3061 c 0,-6.8185 3.788,-11.3642 8.3337,-9.849 4.5457,1.5152 8.3338,6.0609 8.3338,9.849 0,3.7881 -3.7881,8.3338 -8.3338,9.849 -4.5457,1.5152 -8.3337,-3.0305 -8.3337,-9.849 z"
         id="path863"
         style="stroke-width:0.757614;filter:url(#filter1600)"
         transform="matrix(1.3877131,0,0,1.4285997,-855.94996,-1067.4558)" />
      <path
         d="m 1600.4785,2678.032 c 0,-3.7881 3.788,-5.3033 7.5761,-3.0305 4.5457,2.2729 7.5762,6.0609 7.5762,8.3338 0,1.5152 -3.0305,3.0304 -7.5762,3.0304 -3.7881,0 -7.5761,-3.788 -7.5761,-8.3337 z"
         id="path865"
         style="stroke-width:0.757614;filter:url(#filter1604)"
         transform="matrix(1.3877131,0,0,1.4285997,-855.94996,-1067.4558)" />
      <path
         d="m 1992.1651,2588.6335 c 5.3033,-37.8807 -18.1827,-90.9137 -51.5178,-116.6726 -56.0634,-42.4264 -129.552,-43.1841 -184.1003,-2.2729 -37.8807,28.7894 -57.5787,65.9125 -57.5787,109.0965 0,40.1536 -12.1218,40.9112 -23.486,1.5152 -6.8185,-23.486 -6.8185,-34.8502 0,-51.5178 7.5761,-18.9403 7.5761,-19.6979 -3.0305,-6.0609 -6.0609,8.3338 -11.3642,28.7894 -11.3642,45.4569 0,37.1231 -8.3337,30.3046 -15.9099,-12.8795 -4.5457,-28.7893 -5.3033,-29.5469 -6.0609,-6.8185 -0.7576,32.5774 -10.6066,31.0622 -23.486,-3.7881 -6.061,-15.9099 -12.1219,-31.0621 -13.6371,-34.8502 -4.5457,-8.3338 108.3389,-57.5787 160.6143,-69.7005 58.3363,-14.3947 130.3096,-14.3947 195.4645,-0.7577 58.3363,12.8795 86.368,25.7589 123.4911,58.3364 28.0317,25.0012 33.335,37.1231 15.9099,37.1231 -6.0609,0 -12.8794,4.5456 -14.3947,9.8489 -3.0304,5.3033 -6.8185,1.5153 -10.6066,-9.8489 -5.3033,-17.4252 -6.0609,-16.6676 -9.849,11.3642 l -4.5456,30.3046 -12.8795,-26.5166 -12.8794,-26.5165 3.0304,31.8198 c 4.5457,46.9721 -5.3033,46.9721 -19.6979,0.7577 -11.3643,-34.0927 -12.8795,-35.6079 -9.0914,-11.3643 4.5457,32.5775 -2.2729,73.4886 -12.1219,73.4886 -3.0304,0 -4.5456,-12.8794 -2.2728,-29.5469 z"
         id="path867"
         style="stroke-width:0.757614;filter:url(#filter1608)"
         transform="matrix(1.3877131,0,0,1.4285997,-855.94996,-1067.4558)" />
      <path
         d="m 1718.6663,2593.1792 c -5.3033,-21.2132 3.7881,-56.0635 21.9708,-83.3376 20.4556,-31.0622 73.4886,-53.033 118.1879,-49.2449 64.3972,6.8185 115.1574,59.0939 111.3693,115.915 -2.2729,26.5165 -4.5457,30.3045 -20.4556,30.3045 -18.9404,0 -18.1827,0.7576 -25.0013,-60.6091 -18.5508,-35.7116 -90.2311,-54.1498 -121.9759,-31.0622 -13.8616,8.4369 -28.9758,15.1205 -34.0926,33.335 -0.7576,6.8185 -2.2729,23.4861 -3.0305,35.6079 -1.5152,18.1827 -6.0609,23.486 -21.9708,25.0013 -15.9099,1.5152 -21.2132,-1.5153 -25.0013,-15.9099 z"
         id="path869"
         sodipodi:nodetypes="ccccsccccsc"
         style="stroke-width:0.757614;filter:url(#filter1612)"
         transform="matrix(1.3877131,0,0,1.4285997,-855.94996,-1067.4558)" />
      <path
         d="m 1567.9011,2549.9951 c -26.5165,-20.4555 -27.2742,-45.4568 -2.2729,-45.4568 12.8795,0 20.4556,6.8185 27.2741,23.486 13.6371,31.8198 0.7576,42.4264 -25.0012,21.9708 z"
         id="path871"
         style="stroke-width:0.757614;filter:url(#filter1616)"
         transform="matrix(1.3877131,0,0,1.4285997,-855.94996,-1067.4558)" />
      <path
         d="m 2147.4761,2481.8099 c 3.788,-11.3643 59.0939,-33.3351 59.0939,-23.4861 0,9.849 -17.4252,21.9708 -40.9112,28.0317 -15.9099,3.7881 -21.2132,3.0305 -18.1827,-4.5456 z"
         id="path873"
         style="stroke-width:0.757614;filter:url(#filter1620)"
         transform="matrix(1.3877131,0,0,1.4285997,-855.94996,-1067.4558)" />
      <path
         d="m 2115.6562,2455.2934 c 0,-6.061 148.9089,-76.445 152.697,-72.6569 7.5761,8.3337 -37.5396,34.7761 -81.4812,54.4741 -45.4569,20.4556 -71.2158,27.2741 -71.2158,18.1828 z"
         id="path875"
         style="stroke-width:0.757614;filter:url(#filter1624)"
         sodipodi:nodetypes="sccs"
         transform="matrix(1.3877131,0,0,1.4285997,-855.94996,-1067.4558)" />
      <path
         d="m 1473.9569,2424.9888 c -21.9708,-9.849 -40.1536,-21.9708 -40.1536,-25.7589 0,-4.5457 2.2729,-8.3338 6.0609,-8.3338 12.1219,0 100.0051,40.9112 100.0051,46.9721 0,10.6066 -25.0012,6.0609 -65.9124,-12.8794 z"
         id="path877"
         style="stroke-width:0.757614;filter:url(#filter1628)"
         transform="matrix(1.3877131,0,0,1.4285997,-855.94996,-1067.4558)" />
      <path
         d="m 1494.4125,2382.5624 c -95.4594,-53.7906 -143.0309,-76.5233 -135.4548,-84.0994 5.3033,-6.0609 236.2175,117.4344 240.0055,128.7986 5.3033,15.9099 -6.8185,10.6066 -104.5507,-44.6992 z"
         id="path879"
         style="stroke-width:0.757614;filter:url(#filter1632)"
         sodipodi:nodetypes="ccsc"
         transform="matrix(1.3877131,0,0,1.4285997,-855.94996,-1067.4558)" />
      <path
         d="m 2092.9278,2430.2921 c 0,-6.0609 191.6765,-122.7336 201.5254,-122.7336 16.6676,0 -38.6383,43.1841 -106.8236,83.3376 -73.4886,43.184 -94.7018,52.2754 -94.7018,39.396 z"
         id="path881"
         style="stroke-width:0.757614;filter:url(#filter1636)"
         transform="matrix(1.3877131,0,0,1.4285997,-855.94996,-1067.4558)" />
      <path
         d="m 1488.3515,1982.0356 c -88.6408,-64.3972 -135.6129,-102.2779 -131.0672,-106.8236 7.5761,-7.5762 40.1535,14.3947 211.3744,140.9163 62.1244,45.4568 81.8223,65.9124 64.3972,65.9124 -3.7881,0 -68.1853,-45.4569 -144.7044,-100.0051 z"
         id="path883"
         style="stroke-width:0.757614;filter:url(#filter1640)"
         transform="matrix(1.6104526,0,0,1.5839548,-1226.4595,-910.51338)" />
      <path
         d="m 2067.1689,2415.1398 c -6.0609,-9.849 252.2856,-207.5863 266.6803,-204.5559 8.3337,1.5152 -36.3655,40.9112 -120.4607,106.8236 -73.4886,56.8211 -135.613,103.7932 -137.8858,103.7932 -2.2729,0 -6.0609,-3.0305 -8.3338,-6.0609 z"
         id="path885"
         style="stroke-width:0.757614;filter:url(#filter1644)"
         transform="matrix(1.3877131,0,0,1.4285997,-855.94996,-1067.4558)" />
      <path
         d="m 2030.2612,2395.2976 c -9.117,-5.9266 -18.2338,-11.0065 -19.8914,-11.8531 -7.4593,-4.2333 150.843,-197.2703 161.6176,-197.2703 16.576,0 13.2608,5.0799 -69.62,108.3716 -38.1251,48.2593 -68.7909,88.8987 -66.3046,90.5921 1.6576,1.6932 50.5573,-42.3328 107.7451,-97.3652 89.5112,-87.2055 122.6635,-113.4517 122.6635,-98.2119 0,5.0799 -207.202,212.51 -213.8324,214.2034 -3.3153,0.8466 -13.2609,-3.3866 -22.3778,-8.4666 z"
         id="path887"
         style="stroke-width:0.837683;filter:url(#filter1648)"
         transform="matrix(1.3877131,0,0,1.4285997,-855.94996,-1067.4558)" />
      <path
         d="m 1561.4787,1977.595 c -132.1555,-125.5878 -148.4604,-142.6319 -130.4392,-142.6319 14.5885,0 235.1338,202.7345 236.8502,217.9845 2.5744,19.7352 -30.0354,-2.6912 -106.411,-75.3526 z"
         id="path889"
         style="stroke-width:0.877388;filter:url(#filter1652)"
         transform="matrix(1.570215,0,0,1.5475311,-1163.9358,-831.46572)" />
      <path
         d="m 1600.6573,1948.115 c -86.8042,-111.1104 -92.7035,-120.5265 -75.8483,-120.5265 5.8993,0 43.8234,41.431 82.5903,92.2782 97.7599,126.1762 96.9172,124.293 80.9049,124.293 -6.7422,0 -46.3518,-43.3143 -87.6469,-96.0447 z"
         id="path891"
         style="stroke-width:0.890816;filter:url(#filter1656)"
         transform="matrix(1.6432641,0,0,1.4148624,-1294.4397,-561.04398)" />
      <path
         d="m 1988.377,2365.8949 c 1.5153,-4.5457 22.7285,-42.4264 47.7297,-82.58 28.7894,-46.9721 50.0026,-73.4886 59.094,-74.2462 12.1218,0 2.2728,18.1827 -82.58,148.4924 -12.8795,18.9404 -28.7894,25.0013 -24.2437,8.3338 z"
         id="path893"
         style="stroke-width:0.757614;filter:url(#filter1660)"
         transform="matrix(1.3877131,0,0,1.4285997,-855.94996,-1067.4558)" />
      <path
         d="m 1653.5115,2294.6791 c -57.5787,-85.6104 -57.5787,-85.6104 -43.184,-85.6104 8.3337,0 111.3693,142.4315 111.3693,155.3109 0,2.2729 -4.5457,3.7881 -9.0914,3.7881 -5.3033,-0.7576 -31.8198,-33.335 -59.0939,-73.4886 z"
         id="path895"
         style="stroke-width:0.757614;filter:url(#filter1664)"
         transform="matrix(1.3877131,0,0,1.4285997,-855.94996,-1067.4558)" />
      <path
         d="m 1956.5572,2359.5463 c 0,-18.9671 71.9734,-172.428 81.0648,-172.428 5.3033,0 9.849,1.7243 9.849,4.3107 0,13.7942 -77.2767,176.7387 -83.3376,176.7387 -4.5457,0 -7.5762,-3.4486 -7.5762,-8.6214 z"
         id="path897"
         style="stroke-width:0.808189;filter:url(#filter1668)"
         transform="matrix(1.3877131,0,0,1.4285997,-855.94996,-1067.4558)" />
      <path
         d="m 1727.0001,2341.9035 c -6.0609,-11.3385 -25.0013,-50.5875 -42.4264,-88.0921 -24.2437,-54.0764 -28.0318,-68.0316 -18.1828,-65.415 16.6675,3.4888 89.3985,160.4848 78.7919,168.3346 -4.5457,2.6166 -12.1218,-4.361 -18.1827,-14.8275 z"
         id="path899"
         style="stroke-width:0.81289;filter:url(#filter1672)"
         transform="matrix(1.3877131,0,0,1.4285997,-855.94996,-1067.4558)" />
      <path
         d="m 1933.0712,2356.8035 c -6.8185,-6.0609 43.184,-143.1891 53.033,-146.2196 12.8794,-4.5457 10.6066,9.0914 -12.1218,72.731 -18.9404,56.8211 -33.3351,81.8223 -40.9112,73.4886 z"
         id="path901"
         style="stroke-width:0.757614;filter:url(#filter1676)"
         transform="matrix(1.3877131,0,0,1.4285997,-855.94996,-1067.4558)" />
      <path
         d="m 1761.8503,2341.99 c -4.5456,-5.3293 -11.3642,-22.2052 -15.1523,-37.3048 -4.5456,-14.2113 -15.1522,-47.9634 -24.2436,-73.7214 -14.3947,-41.7458 -14.3947,-47.0751 -3.7881,-44.4105 13.6371,2.6647 65.9125,155.4367 56.0635,162.5424 -3.0305,2.6647 -9.0914,-0.8882 -12.8795,-7.1057 z"
         id="path903"
         style="stroke-width:0.820317;filter:url(#filter1680)"
         transform="matrix(1.3877131,0,0,1.4285997,-855.94996,-1067.4558)" />
      <path
         d="m 1908.0699,2346.2017 c -5.3033,-10.7857 16.6675,-146.5061 26.5165,-158.1907 15.1523,-18.875 15.9099,8.0893 3.0305,77.2977 -14.3947,76.399 -21.2132,96.1728 -29.547,80.893 z"
         id="path905"
         style="stroke-width:0.825198;filter:url(#filter1684)"
         transform="matrix(1.3877131,0,0,1.4285997,-855.94996,-1067.4558)" />
      <path
         d="m 1783.0635,2317.4075 c -20.4555,-77.2766 -25.0012,-101.5203 -20.4555,-106.066 2.2728,-3.0304 7.5761,-1.5152 11.3642,2.2729 6.8185,7.5761 31.0622,100.7627 31.0622,120.4607 0,21.9708 -14.3947,11.3642 -21.9709,-16.6676 z"
         id="path907"
         style="stroke-width:0.757614;filter:url(#filter1688)"
         transform="matrix(1.3877131,0,0,1.4285997,-855.94996,-1067.4558)" />
      <path
         d="m 1878.5229,2340.136 c -4.5456,-8.3338 7.5762,-123.4912 12.8795,-129.5521 11.3642,-10.6066 13.6371,10.6066 8.3338,70.4581 -4.5457,56.8211 -11.3643,76.5191 -21.2133,59.094 z"
         id="path909"
         style="stroke-width:0.757614;filter:url(#filter1692)"
         transform="matrix(1.3877131,0,0,1.4285997,-855.94996,-1067.4558)" />
      <path
         d="m 1812.6105,2319.6804 c 0,-9.0914 -2.2728,-38.6384 -4.5457,-64.3972 -5.3033,-49.245 6.8185,-66.6701 15.1523,-21.2132 13.6371,79.5495 14.3947,103.7931 1.5152,103.7931 -7.5761,0 -12.1218,-6.0609 -12.1218,-18.1827 z"
         id="path911"
         style="stroke-width:0.757614;filter:url(#filter1696)"
         transform="matrix(1.3877131,0,0,1.4285997,-855.94996,-1067.4558)" />
      <path
         d="m 1842.9151,2261.1109 c 0,-62.3047 2.2728,-76.7522 11.3642,-76.7522 9.0914,0 11.3642,14.4475 11.3642,76.7522 0,62.3048 -2.2728,76.7522 -11.3642,76.7522 -9.0914,0 -11.3642,-14.4474 -11.3642,-76.7522 z"
         id="path913"
         style="stroke-width:0.827104;filter:url(#filter1700)"
         transform="matrix(1.3877131,0,0,1.4285997,-855.94996,-1067.4558)" />
      <ellipse
         style="opacity:1;fill:#000000;stroke:#000000;stroke-width:7.10298;filter:url(#filter1704)"
         id="path1029"
         transform="matrix(1.3877131,0,0,-1.4285997,-855.94996,-582.9285)"
         ry="47.785519"
         rx="60.761749"
         cy="-2235.6909"
         cx="1848.6194" />
      <g
         id="g1674"
         transform="matrix(0.99725904,0,0,1.0266416,6.2323184,-49.663108)">
        <path
           d="m 1312.6539,2378.2212 q -3.758,-1.5094 -10.0455,0.4128 -6.0531,1.8359 -8.4992,4.7678 -0.5925,0.7651 -0.3465,3.0975 0.035,0.378 0.2202,1.1694 0.1475,0.7274 0.2603,1.0767 0.1438,1.0412 0.6004,1.9676 0.3765,1.1119 1.4183,1.901 0.9255,0.7537 2.2454,1.0498 2.6796,0.4992 5.3824,-1.0422 1.0579,-0.6236 4.3585,-3.4008 0.985,-1.0659 1.8937,-2.2598 2.1734,-2.9098 2.9817,-5.5519 0.7702,-2.7061 -0.4697,-3.1879 z m 36.3955,-7.5269 q -18.4798,2.8902 -20.3613,17.8069 -0.684,5.41 -3.4144,12.8233 -4.6216,12.8765 -11.4759,16.7266 -1.1759,0.7453 -2.5065,1.3911 -22.2645,10.6131 -36.9827,-29.9288 -0.6839,-1.4678 -1.2514,-2.9003 -1.779,-4.4259 -2.5871,-8.6616 -0.222,-1.0125 -0.2895,-1.9256 -0.7283,-4.4215 2.043,-8.5673 2.9693,-4.453 7.1616,-3.4942 1.6307,0.338 4.4595,1.4076 3.4107,1.2464 4.6124,1.664 5.6631,1.6683 9.8856,-0.041 1.6396,-0.4468 3.5154,-1.1369 4.1026,-1.4312 10.2863,-4.4873 1.0161,-0.3738 2.0723,-0.8404 5.2768,-2.0191 10.2444,-4.2375 0.978,-0.4378 2.074,-0.9974 27.1292,-10.6051 34.2003,-19.8496 1.1014,-1.0305 2.0864,-2.0962 0.7088,-0.7297 4.6533,-1.9463 1.3651,-0.2677 2.6486,-0.1927 1.3233,-0.018 2.4087,0.3643 5.5849,1.6971 13.526,11.828 7.7866,10.0315 9.379,17.1833 1.5524,7.2446 -0.5936,11.1602 -2.2641,4.0374 -8.1777,3.8681 -1.2834,-0.075 -16.0726,-3.4663 -12.4986,-2.9053 -21.544,-1.4535 z"
           style="font-style:normal;font-variant:normal;font-weight:normal;font-stretch:normal;font-size:160.07px;line-height:1.25;font-family:'Hippie Movement';-inkscape-font-specification:'Hippie Movement';letter-spacing:20.0088px;stroke-width:4.00174;filter:url(#filter1708)"
           id="path1480"
           transform="matrix(1.3915272,0,0,1.3915272,-864.55198,-991.3807)" />
        <path
           d="m 1389.9315,2450.3995 q 1.0846,-2.9781 -3.7231,-8.0092 -1.5001,-1.5584 -2.5473,-1.8766 -1.6289,-0.495 -3.9027,0.9668 -6.1162,3.9694 -10.0342,9.7092 -1.0685,1.5655 -0.2229,2.505 0.5382,0.5835 2.1325,0.7004 6.2209,0.5252 12.1087,-0.4684 5.2644,-0.9205 6.189,-3.5272 z m 30.374,18.995 q -1.1271,-0.1324 -3.6558,-0.2183 -2.3342,-0.079 -3.694,-0.2824 -1.1671,-0.04 -2.5287,-0.086 -12.638,-0.9 -12.4435,-0.8934 -1.907,0 -3.6194,0 -1.907,0 -3.6993,0.1885 -2.2196,0.113 -8.262,1.0071 -5.1844,0.7349 -8.2984,0.7862 -10.3546,0.2139 -16.2511,-4.8856 -5.782,-4.907 -5.4639,-12.3708 0.2603,-5.8013 4.6472,-11.7137 4.6632,-6.2485 14.6289,-13.3534 11.8486,-8.4229 25.272,-15.0022 13.1889,-6.493 21.9899,-3.5562 7.5612,2.455 16.1426,14.4607 8.1214,11.3932 10.5025,17.6295 4.0801,10.8479 -0.4791,18.2305 -0.8323,1.3223 -1.9355,2.5097 -1.1413,1.1232 -2.4754,2.083 -8.9718,5.2542 -16.7958,5.397 -1.7525,0.097 -3.5812,0.067 z"
           style="font-style:normal;font-variant:normal;font-weight:normal;font-stretch:normal;font-size:160.07px;line-height:1.25;font-family:'Hippie Movement';-inkscape-font-specification:'Hippie Movement';letter-spacing:20.0088px;stroke-width:4.00174;filter:url(#filter1712)"
           id="path1482"
           transform="matrix(1.3915272,0,0,1.3915272,-864.55198,-991.3807)" />
        <path
           d="m 1451.6685,2518.2447 q -5.8843,0.6797 -11.1176,2.2921 -1.9921,0.6549 -3.7517,1.3802 -2.3466,1.0196 -4.1497,2.1518 -1.0197,0.6877 -1.883,1.318 -4.9838,3.6308 -4.1285,7.1459 0.2478,2.1755 3.5145,2.3805 0.2726,-0.022 5.9207,-0.4585 1.0525,-0.1527 2.2232,-0.4271 0.5852,-0.1373 1.4433,-0.2964 0.3091,0.1989 0.6964,0.3691 0.7363,0.2762 1.1999,0.5746 0.2709,0.1348 0.3872,0.1702 0.5782,0.4907 0.9637,0.8178 0.1145,0.1923 0.2692,0.2918 0.7656,1.1251 1.2984,2.1797 0.1146,0.1923 0.1128,0.3493 0,0 0.038,0.064 0.2256,0.6986 3.7374,6.7535 2.2897,4.0034 0.3214,5.978 -2.9151,3.1044 -10.6407,4.8522 -1.8341,0.4402 -6.7476,1.3098 -4.4063,0.7613 -6.7094,1.374 -1.716,0.3187 -3.3903,0.3874 -1.636,0.1329 -3.1921,0.08 -1.4362,-0.3314 -2.7525,-0.9414 -6.9305,-3.1559 -5.9728,-12.1055 -0.1297,-2.297 10.244,-21.3537 -2.9755,1.5635 -5.6801,3.2619 -1.3323,0.8027 -2.5483,1.6408 -1.2941,0.8668 -2.55,1.7978 -3.6896,2.7641 -7.8854,2.1192 -4.0794,-0.6095 -5.0164,-3.7819 -0.3801,-0.7981 -0.7985,-1.6602 -2.8465,-6.3778 -2.8509,-9.4243 0.01,-0.7848 0.027,-2.3545 0.018,-1.5697 0.065,-2.2904 -0.041,-3.2676 0.8732,-4.9325 0.5578,-1.1431 1.621,-2.2376 2.2028,-2.0609 4.6658,-3.045 2.6975,-1.0704 4.2429,-0.076 2.089,1.1073 3.638,1.788 1.0071,0.411 1.898,0.7868 1.0072,0.411 1.8598,0.7226 1.0472,0.3182 2.0562,0.5723 3.3396,0.6472 7.5514,-0.1206 1.287,-0.239 2.614,-0.5708 1.3287,-0.4888 4.4534,-1.4819 2.0393,-1.3755 5.6472,-3.7969 1.414,-1.1454 2.7517,-2.4191 5.6232,-5.1167 10.0812,-10.43 1.0268,-1.3156 2.0153,-2.6953 1.065,-1.2515 2.0518,-2.4743 0.7488,-0.8225 4.4295,-2.8017 1.2125,-0.524 2.383,-0.7986 1.2088,-0.2102 2.1814,-0.1772 7.1935,0.5582 14.9551,12.7872 0.8037,1.1894 1.413,2.372 0.6493,1.0898 1.1804,2.3013 4.1707,9.7203 -1.4943,15.0869 -5.8994,5.4528 -20.8459,5.6364 -1.907,0 -2.9195,0.058 z"
           style="font-style:normal;font-variant:normal;font-weight:normal;font-stretch:normal;font-size:160.07px;line-height:1.25;font-family:'Hippie Movement';-inkscape-font-specification:'Hippie Movement';letter-spacing:20.0088px;stroke-width:4.00174;filter:url(#filter1716)"
           id="path1484"
           transform="matrix(1.3915272,0,0,1.3915272,-864.55198,-991.3807)" />
        <path
           d="m 1503.4497,2622.8044 q -5.7919,-0.6049 -10.7791,-3.5379 -2.3963,-1.4632 -4.2437,-3.2846 -0.8855,-0.8465 -1.6529,-1.8148 -1.9912,-2.8627 -2.7683,-6.4065 1.8927,1.2577 4.1922,0.9588 2.2214,-0.27 3.8353,-1.8798 0.8686,-1.1011 0.9992,-2.3215 0.093,-1.2845 -0.6332,-2.5025 -4.789,-3.2403 -10.7532,-2.375 -1.6379,0.2899 -3.4738,0.8871 -23.9059,11.217 -29.4563,16.7759 -0.6289,0.5439 -1.3359,1.1167 3.3786,4.0718 5.2899,7.1202 2.5224,4.0741 2.0285,6.4442 -0.4557,2.4342 -2.8823,3.6395 -2.4647,1.1411 -5.4135,0.3501 -2.5615,-0.6208 -5.4383,-4.3301 -0.691,-0.84 -1.4184,-1.9011 -1.6628,2.4875 -3.5129,4.3404 -4.0529,3.9138 -8.9229,4.3766 -5.8044,0.4939 -11.8297,-3.5421 -4.2091,-2.9066 -7.9385,-6.9274 -4.9587,-5.4446 -4.987,-9.8109 0,-3.0465 2.5457,-4.8443 2.5118,-1.8619 6.244,-1.5153 2.4887,0.1786 5.3175,1.2482 0.2345,-0.086 0.078,-0.029 4.4463,-0.8541 11.1443,-4.6467 -3.9062,-5.5972 -3.4656,-10.1361 0.1759,-1.7842 1.8991,-2.7306 1.5268,-0.7962 3.5483,-0.602 3.5084,-0.509 5.0342,2.2123 1.1458,1.9232 2.319,4.8524 24.5403,-19.1098 45.0835,-28.9334 7.9431,-3.7818 13.5965,-4.6891 8.3837,-1.4428 14.4562,1.8725 4.0616,2.1792 8.3115,8.3534 5.13,7.4916 9.3221,15.3283 4.4976,8.3496 3.4681,13.3396 -0.7391,3.3981 -3.814,6.874 -4.1764,4.5063 -10.5475,6.9281 -6.6437,2.444 -13.4463,1.7421 z"
           style="font-style:normal;font-variant:normal;font-weight:normal;font-stretch:normal;font-size:160.07px;line-height:1.25;font-family:'Hippie Movement';-inkscape-font-specification:'Hippie Movement';letter-spacing:20.0088px;stroke-width:4.00174;filter:url(#filter1720)"
           id="path1486"
           transform="matrix(1.3915272,0,0,1.3915272,-864.55198,-991.3807)" />
        <path
           d="m 1555.7649,2680.2147 q -1.8715,0.5443 -15.7347,1.7032 -12.3308,0.9743 -20.3591,4.3206 -0.6726,0.065 -1.2897,0.1792 -2.3924,0.304 -30.9274,17.8384 l 2.5123,2.1092 q 4.4583,3.8281 4.1076,6.7045 -0.5081,3.8359 -8.6328,7.5368 -3.4957,1.6365 -5.524,1.9326 -3.4494,0.5787 -5.2742,-1.1429 -0.7126,-0.7393 -1.4042,-2.8883 -0.6256,-2.2008 -1.6712,-4.4426 -2.5904,1.6672 -5.2365,3.2853 -0.8448,0.5721 -1.7456,1.095 -0.7132,0.4686 -0.7132,0.4686 -3.0556,1.4761 -3.3406,4.3006 -0.2952,2.9256 2.8803,3.8627 2.3611,1.2065 3.1098,0.9888 4.3805,-1.4046 5.4073,-1.3765 2.8371,0.089 4.5146,2.6693 1.7785,2.7794 0.3753,6.4841 -1.393,3.6037 -4.884,5.7939 -4.6445,2.8194 -10.6071,2.4968 -1.325,-0.072 -2.6297,-0.3451 -17.5924,-3.8929 -20.5805,-21.694 -0.2115,-1.5053 -0.3573,-3.0623 -0.7495,-6.3752 6.4306,-12.1187 0.7236,-0.5695 13.8325,-8.657 -3.9329,-3.0343 -3.4256,-5.6626 0.1778,-1.1613 1.8379,-3.2108 3.123,-3.9436 5.9907,-4.1573 2.3163,-0.1514 5.3291,2.3999 2.6234,2.2072 3.9124,3.236 37.8836,-21.3627 45.7304,-42.1185 0.8051,-1.3765 1.4331,-2.7994 0.5215,-0.9676 3.9771,-3.4087 1.3408,-0.6836 2.5953,-1.1136 1.2443,-0.3292 2.4581,-0.3558 6.1348,-0.1845 17.1808,7.3746 10.879,7.4118 14.6882,14.0725 3.8092,6.6606 2.8657,11.2108 -0.9638,4.7519 -6.8316,6.4908 z"
           style="font-style:normal;font-variant:normal;font-weight:normal;font-stretch:normal;font-size:160.07px;line-height:1.25;font-family:'Hippie Movement';-inkscape-font-specification:'Hippie Movement';letter-spacing:20.0088px;stroke-width:4.00174;filter:url(#filter1724)"
           id="path1488"
           transform="matrix(1.3915272,0,0,1.3915272,-864.55198,-991.3807)" />
        <path
           d="m 1554.8439,2760.073 q 0.1048,-3.175 -6.017,-6.3967 -1.9066,-0.9944 -2.9987,-0.9584 -1.6988,0.056 -3.4022,2.1762 -4.5704,5.7386 -6.5062,12.4475 -0.5278,1.8298 0.5657,2.4482 0.6918,0.3799 2.2405,-0.023 6.0642,-1.5088 11.3413,-4.3507 4.7084,-2.5715 4.7766,-5.3427 z m 34.7076,8.2204 q -1.1103,0.238 -3.5358,0.9723 -2.2388,0.678 -3.5918,0.9239 -1.1195,0.3385 -2.4255,0.7342 -12.268,3.2233 -12.0815,3.1667 -1.809,0.6152 -3.4335,1.1677 -1.809,0.6152 -3.4507,1.3723 -2.0705,0.8233 -7.5251,3.6208 -4.6901,2.3696 -7.6282,3.4229 -9.7562,3.5433 -16.9322,0.6082 -7.0077,-2.7898 -9.0217,-9.9727 -1.553,-5.5872 0.774,-12.6113 2.4847,-7.4318 9.7339,-17.3868 8.6265,-11.8126 19.319,-22.3844 10.4966,-10.4143 19.7568,-10.4677 7.9344,-0.1104 19.8002,8.5101 11.2394,8.188 15.4332,13.3359 7.2364,8.9743 5.2022,17.4485 -0.3793,1.5227 -1.0574,3.005 -0.7342,1.4338 -1.7019,2.7746 -6.8805,7.8787 -14.2584,10.5382 -1.632,0.6583 -3.3765,1.2189 z"
           style="font-style:normal;font-variant:normal;font-weight:normal;font-stretch:normal;font-size:160.07px;line-height:1.25;font-family:'Hippie Movement';-inkscape-font-specification:'Hippie Movement';letter-spacing:20.0088px;stroke-width:4.00174;filter:url(#filter1728)"
           id="path1490"
           inkscape:transform-center-x="0.1006827"
           inkscape:transform-center-y="2.7663778"
           transform="matrix(1.3915272,0,0,1.3915272,-864.55198,-991.3807)" />
        <path
           d="m 1625.3539,2785.4505 q -6.7044,-2.2475 -15.3008,0.7186 -5.7535,1.9065 -13.6497,7.1603 -21.0497,14.0619 -46.0506,39.645 -8.9886,9.1099 -17.6372,12.2719 -0.4858,0.1835 -3.057,0.927 -1.8447,0.5952 -2.9891,1.1401 -3.6268,1.6571 -3.4126,4.128 0.1412,1.3421 2.4662,3.1549 3.8929,2.956 12.8703,6.0431 1.9387,0.689 3.6161,1.1875 2.5448,0.5234 2.7121,0.5985 3.2398,0.7262 5.8787,0.1958 3.4856,-0.6612 4.672,-3.233 0.5331,-1.2947 1.2334,-2.5141 0.7003,-1.2195 1.5678,-2.3638 2.9371,-4.4516 6.1719,-8.1481 1.04,-1.3224 2.2473,-2.5696 5.1267,-6.5723 28.7631,-22.1379 1.8028,-0.9065 3.6006,-1.5593 5.9939,-1.8714 11.3448,0.5347 0.8935,1.0959 0.9873,2.3803 -0.026,1.2668 -0.7996,2.5265 -1.4372,1.8745 -3.7417,2.5553 -2.3777,0.721 -4.5044,-0.1988 1.2068,3.4288 3.5896,5.9615 0.8988,0.8426 1.9699,1.5069 2.1633,1.4842 4.8179,2.5317 5.5024,2.0725 11.6112,1.641 7.1225,-0.4871 13.7801,-4.1423 6.3913,-3.5923 10.1645,-8.8371 2.8325,-4.0601 3.2194,-7.6124 0.5177,-5.2107 -5.0628,-12.8347 -5.2774,-7.1224 -11.5059,-13.7225 -5.0947,-5.4693 -9.5728,-6.935 z"
           style="font-style:normal;font-variant:normal;font-weight:normal;font-stretch:normal;font-size:160.07px;line-height:1.25;font-family:'Hippie Movement';-inkscape-font-specification:'Hippie Movement';letter-spacing:20.0088px;stroke-width:4.00174;filter:url(#filter1732)"
           id="path1492"
           transform="matrix(1.3915272,0,0,1.3915272,-864.55198,-991.3807)" />
        <path
           d="m 1650.5741,2851.7761 q 4.9749,-1.5978 11.9845,2.3243 8.1978,4.6676 14.7075,11.3608 3.5786,3.6963 3.596,6.7152 0.012,4.126 -4.8534,7.9368 -5.7407,4.5722 -17.6847,7.1787 -14.3085,3.1278 -18.9334,5.3768 -6.2958,3.0669 -13.551,10.2673 -1.7749,1.7242 -5.9922,6.2345 -3.7405,4.0538 -6.0471,6.1847 -2.2518,2.1809 -3.9631,2.2944 -1.8876,0.065 -4.0035,-2.6364 -9.9871,-12.8559 -7.481,-21.4793 0.5609,-1.715 1.3818,-2.5263 1.4858,-1.3195 4.1105,-0.937 0.7168,0.095 2.2488,0.4861 1.4771,0.3411 2.3154,0.4353 5.2609,0.6646 12.5452,-5.7308 11.3977,-9.9992 19.156,-22.6375 5.81,-9.4032 10.4639,-10.8475 z m -62.6477,81.3364 q 2.6044,0.031 4.7029,-2.4007 1.4106,-1.7215 2.2981,-4.6969 3.9543,-13.314 -4.0932,-23.5177 -2.4455,-3.0005 -4.9805,-3.6354 -4.0121,-0.9759 -5.8939,2.2084 -1.6361,4.7423 -2.379,9.6287 -0.4683,3.0227 -0.4365,5.3873 0.1851,8.9553 6.5993,14.8943 2.1304,2.0469 4.1828,2.132 z"
           style="font-style:normal;font-variant:normal;font-weight:normal;font-stretch:normal;font-size:160.07px;line-height:1.25;font-family:'Hippie Movement';-inkscape-font-specification:'Hippie Movement';letter-spacing:20.0088px;stroke-width:4.00174;filter:url(#filter1736)"
           id="path1494"
           transform="matrix(1.3915272,0,0,1.3915272,-864.55198,-991.3807)" />
        <path
           d="m 1682.106,2956.1554 q 0.1549,-3.1729 -5.9152,-6.4947 -1.8907,-1.0256 -2.9831,-1.0076 -1.6996,0.028 -3.4363,2.12 -4.6604,5.6628 -6.7018,12.3391 -0.5567,1.8209 0.5269,2.4572 0.6856,0.3913 2.2406,0.013 6.0872,-1.409 11.4086,-4.1639 4.7482,-2.4939 4.8603,-5.2635 z m 34.5733,8.7894 q -1.114,0.2196 -3.5507,0.914 -2.2492,0.6412 -3.6061,0.8647 -1.1246,0.3201 -2.4367,0.6943 -12.3174,3.0214 -12.13,2.9679 -1.8185,0.5854 -3.4515,1.1111 -1.8184,0.5854 -3.472,1.3154 -2.0832,0.7892 -7.5813,3.4969 -4.7269,2.2922 -7.6812,3.2971 -9.811,3.3826 -16.9396,0.33 -6.9627,-2.9045 -8.8631,-10.1196 -1.4645,-5.6121 0.9731,-12.5969 2.6019,-7.3901 10.0074,-17.2246 8.812,-11.6695 19.67,-22.0643 10.6598,-10.2406 19.9196,-10.1418 7.9352,0.02 19.6633,8.8341 11.1085,8.3716 15.2206,13.5877 7.0937,9.0919 4.9257,17.5317 -0.4033,1.5163 -1.1046,2.9872 -0.7567,1.4216 -1.7456,2.7463 -7.0041,7.7647 -14.423,10.3027 -1.6422,0.6314 -3.3952,1.1632 z"
           style="font-style:normal;font-variant:normal;font-weight:normal;font-stretch:normal;font-size:160.07px;line-height:1.25;font-family:'Hippie Movement';-inkscape-font-specification:'Hippie Movement';letter-spacing:20.0088px;stroke-width:4.00174;filter:url(#filter1740)"
           id="path1496"
           transform="matrix(1.3915272,0,0,1.3915272,-864.55198,-991.3807)" />
      </g>
      <g
         id="g1663"
         transform="matrix(0.99725904,0,0,1.0266416,6.2323184,-49.663108)">
        <path
           d="m 2080.2174,2757.7897 q -4.256,1.8476 -9.0981,8.1376 -5.9149,7.5912 -11.0116,15.7706 -5.3723,8.7221 -4.9334,14.4124 0.2812,3.9941 2.9059,8.2625 3.479,5.7677 9.3959,9.4672 6.1584,3.7581 12.8301,4.0068 5.7531,0.2216 10.9384,-2.3033 2.4934,-1.323 4.4997,-3.0322 1.0149,-0.8029 1.8739,-1.79 2.2926,-2.9567 3.4793,-6.7661 -2.081,1.1302 -4.2342,0.4384 -2.1534,-0.6917 -3.4092,-2.7024 -0.7645,-1.3555 -0.7428,-2.7647 0.064,-1.4719 0.9191,-2.7281 5.0487,-2.8749 10.7181,-1.0154 1.6043,0.5345 3.3688,1.5224 21.7895,16.3189 26.4689,23.3523 1.1576,1.3287 2.1635,2.7425 2.9047,3.9949 5.5805,8.739 0.8073,1.2927 1.4394,2.5674 0.6556,1.3779 1.1361,2.7377 1.0504,2.8635 4.2506,3.394 2.5657,0.4986 5.546,-0.4381 0.2607,-0.1077 2.6107,-0.8071 1.5212,-0.5828 3.4312,-1.4618 8.4222,-3.8388 12.0419,-7.2303 2.2627,-2.0859 2.4125,-3.6836 0.2421,-2.6968 -3.1737,-4.4256 -0.9698,-0.503 -2.7492,-1.0555 -2.352,-0.8129 -2.8348,-0.9298 -8.0063,-3.1078 -16.27,-12.8617 -23.099,-27.341 -42.633,-42.0168 -7.3009,-5.5219 -12.5773,-7.4082 -8.0683,-2.879 -14.3432,-0.1301 z"
           style="font-size:157.128px;line-height:1.25;font-family:'Hippie Movement';-inkscape-font-specification:'Hippie Movement';letter-spacing:19.6409px;word-spacing:7.11px;stroke-width:3.92818;filter:url(#filter1744)"
           id="path1530"
           transform="matrix(1.3915272,0,0,1.3915272,-864.55198,-991.3807)" />
        <path
           d="m 2154.1172,2728.6211 q 4.8326,-0.2379 8.1622,-2.0669 4.1876,-2.2525 5.0796,-6.2198 0.2848,-1.3003 -0.1766,-2.3763 -0.526,-1.2774 -1.7211,-1.3598 -0.667,-0.075 -1.6314,0.3799 -2.7868,1.3346 -4.7552,3.5825 -6.2621,6.9066 -7.7174,7.2889 0.7168,0.7783 2.7599,0.7715 z m 3.0684,-32.3929 q 0.8315,4.0565 -10.6525,11.2629 -14.0301,8.7444 -15.8596,11.0611 -3.84,4.7982 -1.179,6.5381 2.0037,1.3301 9.2961,1.2914 2.5713,2e-4 5.9874,-3.5664 1.0537,-1.0896 3.0641,-3.5712 2.2981,-2.6784 3.426,-3.9008 9.284,-10.2442 19.1284,-7.2402 4.7833,1.4331 7.1051,6.3117 2.8204,5.888 0.077,14.111 -3.1347,9.5552 -13.7985,14.0304 -11.6283,4.9306 -29.1963,2.2608 -4.1038,-0.5884 -17.936,-6.921 -8.8974,-4.0614 -16.1638,-10.8767 -9.8703,-9.2902 -10.1921,-18.6898 -0.3489,-9.6676 13.3407,-22.3954 12.7105,-11.771 19.4425,-11.9173 5.9211,-0.1234 19.3371,8.377 13.6937,8.6378 14.7733,13.8344 z"
           style="font-size:157.128px;line-height:1.25;font-family:'Hippie Movement';-inkscape-font-specification:'Hippie Movement';letter-spacing:19.6409px;word-spacing:7.11px;stroke-width:3.92818;filter:url(#filter1748)"
           id="path1532"
           transform="matrix(1.3915272,0,0,1.3915272,-864.55198,-991.3807)" />
        <path
           d="m 2202.6091,2609.9836 q 9.4826,8.7391 9.6475,19.5488 0.067,3.8816 2.0063,11.7972 2.0802,8.7106 3.84,10.2393 4.5396,3.7963 9.6428,3.637 2.7472,-0.042 4.9397,-1.4553 2.3286,-1.5225 2.9348,-3.7387 0.6703,-2.3544 -0.8075,-4.6717 -3.6684,-4.0195 -9.9709,4.0218 -5.0247,-4.4016 -6.1287,-6.2404 -0.6437,-0.9973 0.042,-3.0175 1.8777,-5.3126 6.1291,-8.7673 4.6919,-3.8513 10.2482,-3.3361 5.2369,0.4687 9.096,4.8109 3.604,4.1577 4.0106,9.324 0.5258,7.8386 -6.4,18.4993 -3.4988,5.3159 -6.6613,7.8968 -5.0681,4.1099 -12.3764,4.6114 -7.3405,0.5705 -13.4788,-2.7215 -7.2545,-3.8232 -10.092,-12.9209 -0.6958,-2.1663 -2.982,-16.2906 -0.8448,-5.5067 -4.867,-8.7667 -3.5123,-2.8904 -7.6974,-2.6895 -4.2889,0.2411 -6.1521,3.5094 -2.0561,3.6825 0.2241,9.7673 0.3566,0.8817 1.1264,2.3399 0.9284,1.85 1.1982,2.3687 1.2849,2.7317 5.8813,6.2228 -6.8997,2.5522 -19.9227,2.1465 -12.9191,-0.4457 -20.6913,-7.1839 -6.0122,-5.2094 -8.4937,-15.8037 -2.3871,-10.0643 -0.057,-17.0809 3.8469,-11.7365 17.9804,-16.4603 12.0547,-3.9208 26.7365,-0.305 12.9021,3.2273 21.0951,10.7089 z"
           style="font-size:157.128px;line-height:1.25;font-family:'Hippie Movement';-inkscape-font-specification:'Hippie Movement';letter-spacing:19.6409px;word-spacing:7.11px;stroke-width:3.92818;filter:url(#filter1752)"
           id="path1534"
           transform="matrix(1.3915272,0,0,1.3915272,-864.55198,-991.3807)" />
        <path
           d="m 2240.1745,2522.4699 q 9.4826,8.739 9.6475,19.5488 0.067,3.8815 2.0063,11.7971 2.0802,8.7106 3.84,10.2394 4.5396,3.7962 9.6428,3.6369 2.7471,-0.042 4.9397,-1.4552 2.3286,-1.5226 2.9347,-3.7388 0.6704,-2.3544 -0.8074,-4.6717 -3.6684,-4.0195 -9.9709,4.0218 -5.0247,-4.4016 -6.1287,-6.2403 -0.6437,-0.9973 0.042,-3.0177 1.8778,-5.3126 6.1291,-8.7672 4.692,-3.8513 10.2482,-3.336 5.237,0.4686 9.0959,4.8109 3.6041,4.1576 4.0107,9.3239 0.5258,7.8387 -6.4,18.4993 -3.4988,5.3159 -6.6614,7.8969 -5.068,4.1098 -12.3764,4.6113 -7.3404,0.5705 -13.4788,-2.7214 -7.2544,-3.8234 -10.0919,-12.9209 -0.6958,-2.1664 -2.9821,-16.2906 -0.8447,-5.5068 -4.8669,-8.7667 -3.5123,-2.8905 -7.6973,-2.6896 -4.289,0.2412 -6.1522,3.5094 -2.0561,3.6826 0.2241,9.7674 0.3566,0.8816 1.1264,2.3398 0.9284,1.85 1.1982,2.3688 1.2849,2.7316 5.8813,6.2227 -6.8997,2.5522 -19.9228,2.1466 -12.9191,-0.4457 -20.6912,-7.1839 -6.0123,-5.2094 -8.4937,-15.8037 -2.3871,-10.0644 -0.057,-17.081 3.8468,-11.7365 17.9803,-16.4603 12.0548,-3.9208 26.7365,-0.305 12.9021,3.2273 21.0951,10.709 z"
           style="font-size:157.128px;line-height:1.25;font-family:'Hippie Movement';-inkscape-font-specification:'Hippie Movement';letter-spacing:19.6409px;word-spacing:7.11px;stroke-width:3.92818;filter:url(#filter1756)"
           id="path1536"
           transform="matrix(1.3915272,0,0,1.3915272,-864.55198,-991.3807)" />
        <path
           d="m 2292.7982,2482.9369 q 4.8012,-0.6089 7.9861,-2.6888 4.009,-2.5681 4.6049,-6.5927 0.1879,-1.3185 -0.3517,-2.3559 -0.619,-1.2334 -1.8168,-1.2236 -0.6707,-0.024 -1.5988,0.5043 -2.68,1.5451 -4.4765,3.938 -5.7334,7.3684 -7.1563,7.8616 0.7722,0.721 2.8091,0.5571 z m 0.6636,-32.5367 q 1.1291,3.9811 -9.789,12.05 -13.3434,9.7986 -14.9963,12.2494 -3.4741,5.0799 -0.692,6.6102 2.0963,1.1722 9.3651,0.5728 2.564,-0.1977 5.7066,-4.0168 0.97,-1.1676 2.7912,-3.7966 2.0933,-2.8475 3.1277,-4.1532 8.4998,-10.929 18.5383,-8.6908 4.8757,1.0613 7.5518,5.7473 3.2478,5.6544 1.1206,14.0649 -2.4191,9.7692 -12.7214,15.0516 -11.2304,5.811 -28.9459,4.4999 -4.1357,-0.2712 -18.3969,-5.5219 -9.1724,-3.3656 -16.9222,-9.6027 -10.5295,-8.5046 -11.5455,-17.8527 -1.0631,-9.6132 11.6461,-23.3576 11.8036,-12.715 18.5056,-13.3786 5.8951,-0.5785 19.9017,6.866 14.2936,7.56 15.7545,12.6588 z"
           style="font-size:157.128px;line-height:1.25;font-family:'Hippie Movement';-inkscape-font-specification:'Hippie Movement';letter-spacing:19.6409px;word-spacing:7.11px;stroke-width:3.92818;filter:url(#filter1760)"
           id="path1538"
           transform="matrix(1.3915272,0,0,1.3915272,-864.55198,-991.3807)" />
      </g>
      <g
         id="g1656"
         transform="matrix(0.99725904,0,0,1.0266416,6.2323184,-49.663108)">
        <path
           d="m 1596.0684,2055.9672 q -3.5579,-2.4518 -10.9585,-2.9116 -8.9661,-0.613 -18.0033,-0.2298 -9.6065,0.4596 -13.9472,3.9843 -3.0598,2.452 -5.1947,6.9727 -2.9174,6.0531 -2.9887,12.9492 0,7.1258 3.06,12.7193 2.6329,4.8272 7.1871,7.6622 2.277,1.3026 4.6253,1.9923 1.1385,0.3831 2.3482,0.5362 3.4868,0.23 7.1159,-0.9194 -1.9212,-1.0727 -2.4193,-3.2181 -0.4982,-2.1455 0.4981,-4.2909 0.7116,-1.3792 1.8501,-2.1454 1.2097,-0.7662 2.6329,-0.7662 4.7677,2.5285 6.0485,8.1986 0.3558,1.609 0.427,3.6012 -2.4194,26.8944 -5.7639,34.6333 -0.4982,1.6857 -1.1385,3.2948 -1.7791,4.5974 -4.2697,9.4246 -0.6403,1.3791 -1.3519,2.6052 -0.7828,1.3026 -1.6368,2.4519 -1.7789,2.4519 -0.6403,5.3635 0.8539,2.3753 3.0598,4.2909 0.2134,0.1532 1.9213,1.6856 1.2097,0.9195 2.8464,1.9923 7.1871,4.7506 11.6701,5.8233 2.7752,0.6895 4.1273,-0.077 2.2771,-1.3026 1.9924,-5.057 -0.071,-1.0727 -0.4981,-2.835 -0.4982,-2.3754 -0.6404,-2.8351 -1.4233,-8.2752 2.3482,-20.4582 10.6027,-34.097 12.8086,-58.2331 0.8539,-9.0414 -0.2134,-14.4049 -1.6367,-8.1987 -6.9025,-11.8 z"
           style="font-size:151.225px;line-height:1.25;font-family:'Hippie Movement';-inkscape-font-specification:'Hippie Movement';letter-spacing:18.903px;word-spacing:30.3204px;stroke-width:3.78061;filter:url(#filter1764)"
           id="path1508"
           transform="matrix(1.3915272,0,0,1.3915272,-864.55198,-991.3807)" />
        <path
           d="m 1628.5773,2141.5149 q 4.1984,-7.892 4.2696,-12.1829 0.071,-1.3025 0,-2.452 -0.071,-1.3024 -0.3558,-2.605 -0.2135,-1.1494 -0.6404,-3.448 -0.9251,-4.9806 -1.2098,-7.3558 -0.1423,-1.226 -0.2134,-2.2987 -2.8464,-22.1439 0.4269,-28.8101 0.8539,-1.1493 1.9925,-1.9921 6.1909,-4.7506 16.3666,-0.6896 2.7041,0.6129 21.6324,16.244 -0.7827,-3.065 -1.779,-5.9766 -0.5692,-1.3792 -1.1386,-2.7584 -0.5692,-1.3793 -1.2096,-2.7584 -1.9925,-4.1377 0.2135,-7.4324 2.1347,-3.2182 6.1908,-2.9116 1.0674,-0.077 2.2059,-0.077 8.468,-0.1533 12.1682,0.9961 4.3408,1.3792 5.4793,1.6857 3.7715,1.226 5.4793,2.5286 1.1386,0.9194 1.9925,2.1454 1.7077,2.6052 1.9924,5.057 0.3558,2.6819 -1.352,3.6012 -1.9925,1.3793 -3.3445,2.452 -0.8539,0.6896 -1.5655,1.3026 -0.8539,0.6896 -1.4943,1.3026 -0.7828,0.7662 -1.4232,1.5324 -1.8501,2.6052 -2.4906,6.4363 -0.1423,1.1493 -0.2134,2.4519 0.1423,1.2259 0.2845,4.2142 0.854,2.2987 2.4195,6.1298 0.925,1.6091 1.9213,3.2182 4.1272,6.5129 8.8948,12.1829 1.2098,1.3793 2.4906,2.6819 1.0675,1.3025 2.1349,2.6051 0.7827,0.9195 1.8501,4.7506 0.1423,1.226 0.071,2.2986 -0.1423,1.0728 -0.5693,1.9156 -3.0598,5.8233 -20.2091,8.0454 -1.7079,0.2299 -3.3445,0.3831 -1.4944,0.1533 -3.0599,0.1533 -12.8799,0.077 -17.2917,-6.6661 -2.9175,-4.5975 -2.2059,-10.2675 0.3558,-3.1415 2.7752,-9.348 0.5693,-1.5324 0.9251,-2.4519 1.2097,-5.2103 1.0673,-10.1907 0,-1.9156 -0.2846,-3.678 -0.4269,-2.2986 -1.1385,-4.2142 -0.3558,-1.1493 -0.9251,-2.1454 -2.4906,-5.4402 -6.9025,-6.0532 -2.704,-0.5363 -3.9849,2.1454 -0.1423,0.23 -1.5655,5.2104 -0.1423,0.9195 -0.2847,1.9922 0.071,-0.3832 -0.3558,5.8999 0.071,1.226 0.1424,2.3753 0.1423,1.2259 0.3558,2.452 0.2134,1.5324 0.427,3.0648 0.2134,1.6091 0.498,3.1415 0.2847,1.5324 0.6405,3.1416 0.1423,1.3026 0.5692,2.835 0.4982,1.5324 2.0637,5.2103 1.4232,3.3714 1.9213,5.2104 1.8501,5.9765 -0.6405,9.3479 -0.7827,0.9195 -1.8501,1.5324 -1.2808,0.2299 -3.0599,0.5364 -0.3558,0.077 -3.1309,0.6895 -1.1386,0.3066 -2.4195,0.4598 -10.3892,0.1533 -16.2954,-2.7584 -0.5693,-0.3064 -1.0674,-0.7662 -5.0523,-5.0571 -2.8464,-9.2714 z"
           style="font-size:151.225px;line-height:1.25;font-family:'Hippie Movement';-inkscape-font-specification:'Hippie Movement';letter-spacing:18.903px;word-spacing:30.3204px;stroke-width:3.78061;filter:url(#filter1768)"
           id="path1510"
           transform="matrix(1.3915272,0,0,1.3915272,-864.55198,-991.3807)" />
        <path
           d="m 1824.1971,2079.5235 q -5.1947,4.1377 -4.6966,3.7546 -2.5618,2.3753 -2.5618,4.9038 -0.498,16.4739 -9.2506,26.0516 -2.1348,3.0649 -4.9811,5.3636 -1.8502,1.5324 -4.1984,2.5286 5.1234,3.2181 7.614,7.6622 2.5618,4.7506 0.6404,9.731 0,0.9962 -0.2846,3.3714 -0.4269,3.9844 0.1423,6.1298 1.5655,1.839 4.483,2.2987 1.0674,-0.2299 1.779,-0.8428 0.7828,-0.5364 1.1386,-1.3792 0.4981,-1.3026 -0.071,-2.3753 -0.6405,-1.0727 -2.0637,-1.3026 2.4195,-1.1494 4.91,-1.6091 0.9251,-0.1532 1.779,-0.1532 1.779,0 3.4868,0.3065 3.558,0.7662 5.9773,2.835 2.7752,2.452 3.4868,6.2064 0.6405,3.6012 -0.7827,7.2025 -1.0674,2.7585 -2.9887,4.5208 -0.4981,0.5363 -1.2097,0.996 -3.2021,4.4442 -10.3181,5.9766 -11.9547,2.6051 -22.1305,-5.5935 -4.0561,-3.2181 -7.6853,-9.9608 -2.5616,-4.5974 -3.4867,-12.1064 0.071,0.1532 0,0 v -0.1533 q 0.071,0.3065 0,0 -0.4981,-1.4557 -0.8539,-3.2947 -0.7828,-2.6052 -1.7079,-6.896 -0.9961,-4.1376 -3.131,-6.6661 -0.3558,1.9155 -1.1385,5.5168 -3.3445,15.7075 -2.206,21.6074 1.281,1.4559 3.7715,3.8311 4.483,4.1377 4.0561,9.2714 -0.427,5.1337 -5.1947,8.122 -0.2134,0.077 -0.5692,0.3065 -0.3558,0.2298 -0.6404,0.3831 -1.4944,0.8428 -4.91,0.9961 l -2.4906,0.077 h -0.2846 q -0.1424,0 0,0 h -0.071 v 0 0 q 0.071,0 -0.071,0 0.1424,0 0,0 l -0.3558,0.077 h -0.1423 -0.2846 -1.2097 q -3.2734,0.1533 -10.8162,-2.3753 -1.0675,-0.3064 -1.9925,-0.613 -3.6291,-0.8428 -5.4793,-4.674 -1.9213,-3.9843 -0.1423,-7.5856 0.5694,-1.1493 1.1386,-2.4518 0.5693,-1.226 0.9962,-2.4519 6.6178,-18.696 3.8426,-59.5358 -0.4269,-1.6857 -0.8539,-3.3714 -1.8501,-6.9725 -4.7677,-13.1023 -0.7827,-1.4559 -1.6366,-2.9117 -0.5693,-1.4558 -1.2809,-2.8351 -0.427,-0.996 -0.2134,-4.9038 0.2845,-1.2259 0.7116,-2.2987 0.4981,-1.0726 1.2097,-1.8389 5.1234,-5.5168 23.1978,-5.8999 1.779,-0.077 3.4869,0 1.5655,0 3.131,0.1532 13.0933,1.3026 15.1568,8.4285 1.4233,4.9039 -1.2096,10.4207 -1.4944,3.1415 -6.0486,9.0414 -1.8501,2.3753 -1.7078,2.2986 -0.8539,0.6897 -1.4231,6.9727 -0.4982,6.5129 1.2808,6.9727 3.9849,1.3026 7.9698,-2.4519 5.1235,-4.9039 5.9774,-16.1674 0.1423,-1.9155 -0.071,-5.3635 -0.2135,-3.9844 -0.2135,-5.3637 0.071,-6.283 3.6292,-9.2713 1.1385,-0.8428 2.4906,-1.3792 18.5725,-0.6895 24.7633,3.678 0.4271,0.4597 0.7828,0.9193 3.2022,5.2104 0.854,7.6624 -0.5694,0.6895 -1.9213,1.3791 -1.5656,0.7663 -2.1348,1.226 z"
           style="font-size:151.225px;line-height:1.25;font-family:'Hippie Movement';-inkscape-font-specification:'Hippie Movement';letter-spacing:18.903px;word-spacing:30.3204px;stroke-width:3.78061;filter:url(#filter1772)"
           id="path1512"
           transform="matrix(1.3915272,0,0,1.3915272,-864.55198,-991.3807)" />
        <path
           d="m 1896.8301,2110.8022 q -0.427,-4.5208 -3.8426,-7.2792 -3.5579,-2.9117 -5.1947,1.0727 -1.9212,4.5973 1.5655,8.5051 3.3445,3.7545 7.543,2.9882 0.4981,0 0.4981,-2.3752 -0.071,-0.5364 -0.2847,-1.4559 -0.2134,-0.996 -0.2846,-1.4557 z m 11.0297,54.9382 q -4.0561,2.6818 -10.1046,3.0649 -1.4232,0.077 -2.8464,0 -7.614,-0.7662 -7.4718,-0.7662 -4.1272,-0.9195 -5.1234,-4.2909 0.071,0.3831 -0.9962,-3.0649 -2.2771,-11.57 3.4156,-16.9335 0.7828,-1.3026 3.0598,0.3065 0.2136,0.2298 4.4831,4.6739 2.6329,2.7585 5.1235,3.0649 1.4232,0.077 2.8463,-0.3831 1.1385,-0.3831 1.9925,-1.2259 1.9213,-1.9923 1.7078,-5.9 -0.1423,-3.7545 -2.1347,-7.5856 -0.5693,-1.1493 -4.1985,-1.226 -0.8539,0 -2.3482,0 -12.2394,1.3026 -19.3553,-5.4401 -1.0674,-1.0728 -1.9925,-2.2221 -6.9024,-8.8115 -6.4043,-20.3815 0.071,-1.9923 0.2135,-3.8312 2.2059,-21.1478 19.0707,-22.527 9.7488,-0.8428 23.6248,3.2947 1.7078,0.5364 3.0599,1.0728 3.4156,1.1493 5.3369,4.0609 2.0636,3.065 1.4232,6.5896 -1.2097,5.3635 -3.4868,20.3815 -0.2135,1.6092 -0.2135,3.4481 -0.071,1.7623 0,3.448 -0.071,1.4558 0.071,3.0649 0.071,2.6052 0.5692,6.7427 0.7116,5.8234 0.854,6.8194 0.7827,8.0455 -0.9963,13.4856 -0.5693,1.4559 -1.2808,2.9117 -3.2022,6.2831 -7.8987,9.3479 z"
           style="font-size:151.225px;line-height:1.25;font-family:'Hippie Movement';-inkscape-font-specification:'Hippie Movement';letter-spacing:18.903px;word-spacing:30.3204px;stroke-width:3.78061;filter:url(#filter1776)"
           id="path1514"
           transform="matrix(1.3915272,0,0,1.3915272,-864.55198,-991.3807)" />
        <path
           d="m 2029.6347,2109.4099 q -4.8388,7.3558 -5.3369,11.6466 -0.1423,1.226 -0.2135,2.452 0,1.3026 0.1423,2.6051 0.071,1.1494 0.2847,3.448 0.4981,5.0572 0.5692,7.5091 0.071,1.2259 0,2.2987 0.854,22.3737 -2.9887,28.6568 -0.9962,0.996 -2.2058,1.7623 -6.5468,4.0609 -16.3667,-0.9961 -2.6329,-0.9195 -20.0669,-18.4661 0.5692,3.1416 1.2808,6.1299 0.427,1.4557 0.8539,2.835 0.4982,1.4558 0.9963,2.9116 1.5655,4.2909 -0.925,7.3558 -2.4195,2.9882 -6.4044,2.222 -1.0674,0 -2.2059,-0.1532 -8.468,-0.7662 -12.0259,-2.2221 -1.7079,-0.7662 -5.2658,-2.2986 -3.7003,-1.5325 -5.2658,-3.0649 -1.0674,-0.9962 -1.779,-2.2987 -1.4232,-2.835 -1.5655,-5.2869 -0.071,-2.6818 1.7078,-3.448 2.1348,-1.1495 3.558,-2.0688 0.8539,-0.6131 1.6366,-1.1494 0.9251,-0.613 1.6367,-1.1493 0.8539,-0.6896 1.4944,-1.3026 2.1347,-2.4519 3.0598,-6.2065 0.2846,-1.1493 0.4981,-2.3752 -0.071,-1.3026 0.1423,-4.2909 -0.6404,-2.1454 -1.9213,-6.3597 -0.7828,-1.6856 -1.6366,-3.3713 -3.4157,-6.8961 -7.7564,-13.0259 -1.0673,-1.5324 -2.2059,-2.9883 -0.9251,-1.3792 -1.9214,-2.835 -0.6403,-0.9961 -1.3519,-4.8272 -0.071,-1.3026 0.1422,-2.3752 0.2136,-0.9962 0.7116,-1.7624 3.6292,-5.5168 20.8497,-5.9765 1.7078,-0.077 3.3445,0 1.4943,0 3.131,0.1532 12.8087,1.3025 16.509,8.4285 2.5616,4.9804 1.352,10.4972 -0.7117,3.0649 -3.6292,8.9648 -0.7828,1.5326 -1.1386,2.3754 -1.7077,5.0571 -2.0635,10.0375 -0.071,1.9156 0,3.6779 0.2135,2.3753 0.7116,4.3674 0.3558,1.1494 0.7116,2.1454 2.0636,5.7468 6.4043,6.7429 2.6329,0.8428 4.1984,-1.6857 0.071,-0.1533 1.9924,-4.9805 0.2135,-0.9195 0.427,-1.9922 -0.071,0.3831 0.9251,-5.8233 0.071,-1.226 0.071,-2.3753 -0.071,-1.2259 -0.1422,-2.4519 -0.071,-1.6091 -0.1424,-3.1415 -0.071,-1.6091 -0.2135,-3.1416 -0.1423,-1.609 -0.3558,-3.2181 0,-1.3026 -0.3558,-2.9116 -0.3558,-1.5325 -1.5654,-5.3636 -1.0674,-3.5247 -1.4232,-5.3636 -1.281,-6.2064 1.4232,-9.2713 0.925,-0.8429 2.0635,-1.3026 1.2809,-0.077 3.0599,-0.2298 0.3558,-0.077 3.1309,-0.3831 1.2098,-0.23 2.4906,-0.23 10.3182,0.9195 16.0109,4.4442 0.4981,0.4597 0.925,0.9195 4.6254,5.5168 1.9925,9.5777 z"
           style="font-size:151.225px;line-height:1.25;font-family:'Hippie Movement';-inkscape-font-specification:'Hippie Movement';letter-spacing:18.903px;word-spacing:30.3204px;stroke-width:3.78061;filter:url(#filter1780)"
           id="path1516"
           transform="matrix(1.3915272,0,0,1.3915272,-864.55198,-991.3807)" />
        <path
           d="m 2076.742,2157.146 q 2.206,4.0611 5.1234,6.0532 3.6292,2.5286 7.3295,1.3793 1.2097,-0.3831 1.9213,-1.3026 0.8539,-1.0728 0.4269,-2.1455 -0.2134,-0.613 -0.9962,-1.2259 -2.2771,-1.7623 -4.9812,-2.3753 -8.3967,-2.0688 -9.3218,-3.1415 -0.3557,0.996 0.4981,2.7583 z m 28.4637,-13.0257 q -3.0599,2.6817 -13.876,-3.7546 -13.1644,-7.892 -15.8686,-8.3518 -5.6216,-0.9961 -5.9773,2.1454 -0.2846,2.3753 2.7752,8.6584 1.0674,2.2221 5.4792,3.448 1.3521,0.3831 4.2696,0.9195 3.2021,0.6896 4.6965,1.0727 12.4529,3.0649 14.0184,13.0258 0.7828,4.8272 -2.3483,9.1947 -3.7714,5.287 -11.8124,6.896 -9.3219,1.9156 -17.5052,-5.1337 -8.966,-7.6622 -14.0184,-24.1361 -1.2096,-3.8311 -1.6366,-18.8491 -0.2846,-9.6544 2.4194,-19.2323 3.7003,-13.0257 11.4567,-17.853 7.9698,-4.9804 24.3364,0.6896 15.157,5.287 18.0744,11.0337 2.5618,5.0571 0.9963,20.7646 -1.5655,16.0142 -5.4793,19.4622 z"
           style="font-size:151.225px;line-height:1.25;font-family:'Hippie Movement';-inkscape-font-specification:'Hippie Movement';letter-spacing:18.903px;word-spacing:30.3204px;stroke-width:3.78061;filter:url(#filter1784)"
           id="path1518"
           transform="matrix(1.3915272,0,0,1.3915272,-864.55198,-991.3807)" />
        <path
           d="m 2215.0831,2103.5214 q -4.8388,7.3558 -5.3369,11.6466 -0.1423,1.226 -0.2135,2.452 0,1.3026 0.1424,2.6051 0.071,1.1494 0.2846,3.448 0.4981,5.0572 0.5692,7.5091 0.071,1.2259 0,2.2987 0.8539,22.3737 -2.9887,28.6568 -0.9962,0.996 -2.2059,1.7623 -6.5466,4.0609 -16.3666,-0.9961 -2.6329,-0.9195 -20.067,-18.4661 0.5694,3.1416 1.281,6.1299 0.4269,1.4557 0.8539,2.835 0.498,1.4558 0.9962,2.9116 1.5655,4.2909 -0.9251,7.3558 -2.4194,2.9882 -6.4043,2.222 -1.0674,0 -2.206,-0.1532 -8.4679,-0.7662 -12.0258,-2.2221 -1.7079,-0.7662 -5.2658,-2.2986 -3.7003,-1.5325 -5.2658,-3.0649 -1.0674,-0.9962 -1.779,-2.2987 -1.4232,-2.835 -1.5655,-5.2869 -0.071,-2.6818 1.7078,-3.448 2.1348,-1.1495 3.558,-2.0688 0.8539,-0.6131 1.6366,-1.1494 0.9251,-0.613 1.6367,-1.1493 0.854,-0.6896 1.4943,-1.3026 2.1348,-2.4519 3.0599,-6.2065 0.2846,-1.1493 0.4981,-2.3752 -0.071,-1.3026 0.1423,-4.2909 -0.6404,-2.1454 -1.9213,-6.3597 -0.7827,-1.6856 -1.6366,-3.3713 -3.4156,-6.8961 -7.7564,-13.0259 -1.0674,-1.5324 -2.2059,-2.9883 -0.9251,-1.3792 -1.9213,-2.835 -0.6405,-0.9961 -1.352,-4.8272 -0.071,-1.3026 0.1423,-2.3752 0.2134,-0.9962 0.7116,-1.7624 3.629,-5.5168 20.8496,-5.9765 1.7079,-0.077 3.3445,0 1.4943,0 3.131,0.1532 12.8086,1.3025 16.5089,8.4285 2.5618,4.9804 1.3521,10.4972 -0.7116,3.0649 -3.6292,8.9648 -0.7827,1.5326 -1.1385,2.3754 -1.7078,5.0571 -2.0636,10.0375 -0.071,1.9156 0,3.6779 0.2134,2.3753 0.7116,4.3674 0.3558,1.1494 0.7115,2.1454 2.0637,5.7468 6.4044,6.7429 2.6329,0.8428 4.1984,-1.6857 0.071,-0.1533 1.9925,-4.9805 0.2134,-0.9195 0.4269,-1.9922 -0.071,0.3831 0.9251,-5.8233 0.071,-1.226 0.071,-2.3753 -0.071,-1.2259 -0.1424,-2.4519 -0.071,-1.6091 -0.1423,-3.1415 -0.071,-1.6091 -0.2135,-3.1416 -0.1423,-1.609 -0.3558,-3.2181 0,-1.3026 -0.3558,-2.9116 -0.3557,-1.5325 -1.5655,-5.3636 -1.0674,-3.5247 -1.4231,-5.3636 -1.2809,-6.2064 1.4231,-9.2713 0.9251,-0.8429 2.0637,-1.3026 1.2808,-0.077 3.0598,-0.2298 0.3558,-0.077 3.131,-0.3831 1.2097,-0.23 2.4906,-0.23 10.318,0.9195 16.0108,4.4442 0.4982,0.4597 0.9251,0.9195 4.6253,5.5168 1.9924,9.5777 z"
           style="font-size:151.225px;line-height:1.25;font-family:'Hippie Movement';-inkscape-font-specification:'Hippie Movement';letter-spacing:18.903px;word-spacing:30.3204px;stroke-width:3.78061;filter:url(#filter1788)"
           id="path1520"
           transform="matrix(1.3915272,0,0,1.3915272,-864.55198,-991.3807)" />
      </g>
    </g>
  </g>
</svg>
